<?xml version="1.0" standalone="no"?>
<!DOCTYPE svg PUBLIC "-//W3C//DTD SVG 20010904//EN"
 "http://www.w3.org/TR/2001/REC-SVG-20010904/DTD/svg10.dtd">
<svg version="1.0" xmlns="http://www.w3.org/2000/svg"
 width="2079.000000pt" height="2079.000000pt" viewBox="0 0 2079.000000 2079.000000"
 preserveAspectRatio="xMidYMid meet">
<metadata>
Created by potrace 1.14, written by Peter Selinger 2001-2017
</metadata>
<g transform="translate(0.000000,2079.000000) scale(0.100000,-0.100000)"
fill="#000000" stroke="none">
<path d="M8852 16543 c37 -2 100 -2 140 0 40 1 10 3 -67 3 -77 0 -110 -1 -73
-3z"/>
<path d="M9243 16543 c37 -2 97 -2 135 0 37 2 6 3 -68 3 -74 0 -105 -1 -67 -3z"/>
<path d="M8678 16533 c18 -2 45 -2 60 0 15 2 0 4 -33 4 -33 0 -45 -2 -27 -4z"/>
<path d="M9498 16533 c17 -2 47 -2 65 0 17 2 3 4 -33 4 -36 0 -50 -2 -32 -4z"/>
<path d="M8558 16523 c12 -2 32 -2 45 0 12 2 2 4 -23 4 -25 0 -35 -2 -22 -4z"/>
<path d="M9643 16523 c15 -2 37 -2 50 0 12 2 0 4 -28 4 -27 0 -38 -2 -22 -4z"/>
<path d="M8458 16513 c12 -2 30 -2 40 0 9 3 -1 5 -23 4 -22 0 -30 -2 -17 -4z"/>
<path d="M9748 16513 c12 -2 32 -2 45 0 12 2 2 4 -23 4 -25 0 -35 -2 -22 -4z"/>
<path d="M8373 16503 c9 -2 25 -2 35 0 9 3 1 5 -18 5 -19 0 -27 -2 -17 -5z"/>
<path d="M9838 16503 c12 -2 30 -2 40 0 9 3 -1 5 -23 4 -22 0 -30 -2 -17 -4z"/>
<path d="M8303 16493 c9 -2 23 -2 30 0 6 3 -1 5 -18 5 -16 0 -22 -2 -12 -5z"/>
<path d="M9923 16493 c9 -2 25 -2 35 0 9 3 1 5 -18 5 -19 0 -27 -2 -17 -5z"/>
<path d="M8233 16483 c9 -2 23 -2 30 0 6 3 -1 5 -18 5 -16 0 -22 -2 -12 -5z"/>
<path d="M9993 16483 c9 -2 25 -2 35 0 9 3 1 5 -18 5 -19 0 -27 -2 -17 -5z"/>
<path d="M8168 16473 c6 -2 18 -2 25 0 6 3 1 5 -13 5 -14 0 -19 -2 -12 -5z"/>
<path d="M10063 16473 c9 -2 23 -2 30 0 6 3 -1 5 -18 5 -16 0 -22 -2 -12 -5z"/>
<path d="M8108 16463 c6 -2 18 -2 25 0 6 3 1 5 -13 5 -14 0 -19 -2 -12 -5z"/>
<path d="M10128 16463 c6 -2 18 -2 25 0 6 3 1 5 -13 5 -14 0 -19 -2 -12 -5z"/>
<path d="M8058 16453 c6 -2 18 -2 25 0 6 3 1 5 -13 5 -14 0 -19 -2 -12 -5z"/>
<path d="M10188 16453 c6 -2 18 -2 25 0 6 3 1 5 -13 5 -14 0 -19 -2 -12 -5z"/>
<path d="M8008 16443 c7 -3 16 -2 19 1 4 3 -2 6 -13 5 -11 0 -14 -3 -6 -6z"/>
<path d="M10238 16443 c6 -2 18 -2 25 0 6 3 1 5 -13 5 -14 0 -19 -2 -12 -5z"/>
<path d="M7958 16433 c7 -3 16 -2 19 1 4 3 -2 6 -13 5 -11 0 -14 -3 -6 -6z"/>
<path d="M10298 16433 c7 -3 16 -2 19 1 4 3 -2 6 -13 5 -11 0 -14 -3 -6 -6z"/>
<path d="M7908 16423 c7 -3 16 -2 19 1 4 3 -2 6 -13 5 -11 0 -14 -3 -6 -6z"/>
<path d="M10338 16423 c6 -2 18 -2 25 0 6 3 1 5 -13 5 -14 0 -19 -2 -12 -5z"/>
<path d="M7858 16413 c6 -2 18 -2 25 0 6 3 1 5 -13 5 -14 0 -19 -2 -12 -5z"/>
<path d="M10388 16413 c6 -2 18 -2 25 0 6 3 1 5 -13 5 -14 0 -19 -2 -12 -5z"/>
<path d="M7818 16403 c7 -3 16 -2 19 1 4 3 -2 6 -13 5 -11 0 -14 -3 -6 -6z"/>
<path d="M10438 16403 c7 -3 16 -2 19 1 4 3 -2 6 -13 5 -11 0 -14 -3 -6 -6z"/>
<path d="M7778 16393 c7 -3 16 -2 19 1 4 3 -2 6 -13 5 -11 0 -14 -3 -6 -6z"/>
<path d="M10478 16393 c7 -3 16 -2 19 1 4 3 -2 6 -13 5 -11 0 -14 -3 -6 -6z"/>
<path d="M7738 16383 c7 -3 16 -2 19 1 4 3 -2 6 -13 5 -11 0 -14 -3 -6 -6z"/>
<path d="M10518 16383 c7 -3 16 -2 19 1 4 3 -2 6 -13 5 -11 0 -14 -3 -6 -6z"/>
<path d="M7698 16373 c7 -3 16 -2 19 1 4 3 -2 6 -13 5 -11 0 -14 -3 -6 -6z"/>
<path d="M10558 16373 c7 -3 16 -2 19 1 4 3 -2 6 -13 5 -11 0 -14 -3 -6 -6z"/>
<path d="M7658 16363 c7 -3 16 -2 19 1 4 3 -2 6 -13 5 -11 0 -14 -3 -6 -6z"/>
<path d="M10598 16363 c7 -3 16 -2 19 1 4 3 -2 6 -13 5 -11 0 -14 -3 -6 -6z"/>
<path d="M10645 16350 c11 -5 27 -9 35 -9 9 0 8 4 -5 9 -11 5 -27 9 -35 9 -9
0 -8 -4 5 -9z"/>
<path d="M7588 16343 c7 -3 16 -2 19 1 4 3 -2 6 -13 5 -11 0 -14 -3 -6 -6z"/>
<path d="M10715 16330 c11 -5 27 -9 35 -9 9 0 8 4 -5 9 -11 5 -27 9 -35 9 -9
0 -8 -4 5 -9z"/>
<path d="M7480 16315 c-19 -7 -28 -13 -20 -13 8 0 31 6 50 13 19 7 28 13 20
13 -8 0 -31 -6 -50 -13z"/>
<path d="M8780 16313 c-19 -1 -93 -8 -165 -14 -111 -9 -277 -30 -430 -54 -270
-43 -665 -151 -920 -252 -708 -280 -1232 -683 -1604 -1233 -316 -468 -473
-948 -458 -1395 9 -234 49 -407 143 -605 226 -477 669 -755 1059 -666 165 38
342 158 393 268 87 188 9 423 -166 500 -145 63 -342 9 -437 -120 -67 -90 -93
-237 -60 -331 l15 -43 -33 7 c-17 3 -73 26 -123 50 -219 107 -403 372 -475
685 -29 124 -36 362 -15 510 70 496 364 1047 767 1435 188 181 393 324 654
457 373 189 738 300 1185 360 142 19 211 22 490 22 402 0 520 -13 960 -109
160 -35 451 -140 611 -220 40 -21 112 -61 160 -91 48 -30 90 -54 94 -54 21 0
202 -154 290 -249 217 -230 364 -470 448 -733 30 -92 33 -97 60 -98 15 0 41
-7 56 -15 42 -21 107 -100 127 -152 17 -45 18 -45 58 -41 39 5 42 3 59 -33 10
-21 40 -57 68 -80 l49 -41 0 -94 c0 -76 -3 -94 -15 -94 -22 0 -245 88 -292
116 -45 26 -53 28 -53 16 0 -12 177 -93 277 -127 61 -21 83 -33 85 -47 2 -14
28 -30 86 -55 45 -20 81 -38 78 -40 -2 -2 -30 3 -62 11 -87 22 -240 39 -291
31 -37 -5 -52 -2 -100 24 -31 17 -58 30 -59 28 -9 -8 -5 -1462 4 -1465 5 -1
18 -9 28 -16 18 -13 17 -15 -14 -33 l-32 -18 0 -165 c0 -437 -74 -803 -215
-1068 -169 -316 -446 -499 -800 -528 -102 -8 -137 -30 -157 -97 -16 -56 -16
-249 1 -315 22 -88 17 -86 361 -91 206 -2 297 -7 302 -15 4 -6 8 -65 8 -131 0
-121 6 -176 36 -338 l17 -87 52 49 c106 100 211 129 332 92 93 -28 133 -54
133 -86 0 -24 -3 -25 -58 -25 -219 0 -339 -170 -288 -410 30 -143 129 -293
250 -382 46 -33 46 -34 -29 -8 -47 16 -55 17 -44 4 18 -22 64 -44 142 -69 77
-25 69 -38 -12 -23 -67 12 -77 8 -53 -20 13 -15 26 -20 38 -16 17 6 17 5 -1
-9 -38 -30 5 -18 83 25 244 132 360 257 407 438 13 50 16 93 13 186 l-5 121
66 -34 c39 -19 94 -37 136 -43 63 -10 71 -9 83 7 30 41 72 221 72 310 l0 42
43 -25 c26 -14 69 -27 106 -30 77 -8 105 -36 123 -124 6 -33 15 -60 19 -60 14
0 97 102 124 152 72 133 72 287 0 446 -13 28 -21 52 -17 52 4 -1 27 -5 52 -10
56 -10 125 2 198 35 l54 25 -45 47 c-24 27 -59 65 -77 86 -18 21 -48 44 -66
52 -36 15 -65 53 -70 92 -1 14 -13 37 -27 52 -38 41 -167 217 -167 228 0 5 28
50 63 99 267 379 462 697 622 1014 37 73 38 78 41 205 3 71 11 186 20 255 16
133 75 421 99 490 12 33 158 322 171 339 2 2 12 -7 22 -20 l19 -23 2 30 c7
160 1 406 -14 509 -79 574 -343 1073 -815 1545 -316 315 -624 534 -1060 754
-135 68 -290 143 -345 166 -108 45 -367 144 -400 152 -11 3 -74 22 -139 42
-311 95 -772 176 -1181 206 -127 9 -639 12 -725 3z m2435 -1148 c233 -28 658
-140 901 -236 l50 -20 23 -77 c24 -84 87 -224 121 -272 45 -63 131 -80 208
-41 22 11 43 25 47 31 15 24 21 6 13 -37 -104 -563 -133 -709 -163 -818 -19
-72 -41 -159 -49 -195 l-13 -65 -7 60 c-25 214 -76 405 -158 596 -62 144 -122
248 -216 374 -122 164 -178 298 -169 404 2 31 7 64 11 73 11 24 -61 42 -147
35 -91 -6 -179 -50 -269 -136 l-71 -66 5 56 c4 46 30 115 75 200 11 19 -135
15 -219 -6 -22 -6 -27 -2 -41 34 -9 22 -20 59 -23 81 -6 39 -6 41 17 36 13 -3
47 -8 74 -11z m1467 -511 l117 -69 12 -51 c12 -52 7 -308 -6 -349 -5 -18 1
-23 49 -38 59 -19 151 -77 151 -95 0 -7 9 -18 21 -26 23 -17 69 -113 78 -166
l6 -35 -69 -32 c-37 -18 -93 -53 -124 -78 l-56 -45 -215 6 c-119 4 -216 10
-216 13 0 3 7 28 15 54 13 43 92 453 145 746 11 62 17 124 14 138 -9 33 -46
46 -96 32 -48 -12 -52 -10 -31 20 14 21 70 52 83 47 3 -1 58 -33 122 -72z
m-1403 22 c-2 -2 -15 -7 -29 -10 l-25 -7 25 20 c14 11 27 15 29 10 1 -6 1 -12
0 -13z m341 -168 c0 -19 -2 -20 -10 -8 -13 19 -13 30 0 30 6 0 10 -10 10 -22z
m8 -288 c4 0 8 -27 10 -61 l3 -61 -41 33 c-44 36 -47 41 -26 58 8 6 20 26 27
44 13 29 14 30 17 10 2 -13 6 -23 10 -23z m33 -556 c95 -17 216 -49 272 -71
32 -13 37 -19 37 -48 l0 -34 -89 6 c-203 13 -303 -62 -318 -238 l-6 -68 -29
17 c-42 24 -112 102 -139 153 -35 66 -33 165 4 242 l28 57 79 0 c43 0 115 -7
161 -16z m956 -279 l55 -50 -25 -105 c-15 -58 -31 -143 -37 -190 -19 -143 -10
-130 -88 -126 -37 2 -95 4 -129 5 l-63 1 0 88 c0 95 22 299 46 432 24 133 14
128 106 57 44 -34 105 -84 135 -112z m-669 109 c22 -4 22 -6 22 -170 l0 -166
-39 35 c-52 47 -116 83 -174 98 -40 10 -54 9 -93 -6 -25 -9 -52 -28 -61 -41
-24 -37 -33 -29 -27 24 14 112 48 173 118 209 52 27 166 35 254 17z m1406
-626 c-81 -162 -86 -121 -6 55 27 61 38 75 48 66 11 -9 3 -32 -42 -121z
m-1044 -51 c1 -457 187 -978 503 -1410 l49 -67 -23 -20 c-29 -24 -27 -24 -80
-4 -24 8 -86 21 -138 29 -52 8 -95 16 -96 17 -2 2 -15 39 -30 83 -31 89 -102
236 -148 305 -16 25 -78 92 -137 150 -113 110 -141 156 -126 214 9 36 61 92
112 122 24 14 44 32 44 40 0 7 -16 29 -35 48 -39 40 -89 53 -135 37 l-31 -10
19 32 c128 209 202 376 227 511 12 61 25 22 25 -77z m-406 -608 c-42 -55 -128
-152 -191 -217 l-114 -117 68 85 c93 118 209 299 263 409 l45 93 3 -76 3 -76
-77 -101z m96 -301 c24 -16 19 -16 -100 -11 -69 3 -148 1 -177 -4 l-52 -10 77
82 76 82 76 -61 c41 -34 86 -69 100 -78z m131 -150 c65 -22 110 -61 164 -143
46 -69 125 -220 125 -239 0 -3 -22 -6 -50 -6 l-49 0 -12 42 c-18 67 -64 150
-106 190 -66 64 -105 76 -343 105 -37 4 -41 7 -26 15 79 44 223 62 297 36z
m-6 -118 c46 -24 77 -48 98 -77 29 -40 29 -44 22 -117 -7 -75 -7 -76 -34 -76
-27 0 -29 3 -34 54 -9 94 -57 161 -144 205 -50 25 -53 20 -18 -25 44 -57 65
-115 65 -178 l0 -59 -76 6 c-41 4 -99 14 -128 22 l-53 15 0 93 c0 62 -5 106
-16 135 l-17 44 134 -4 c129 -3 135 -4 201 -38z m-789 -2250 c28 0 13 -30 -40
-80 -142 -135 -154 -293 -30 -417 l54 -54 0 -120 c0 -65 -3 -119 -6 -119 -16
0 -109 77 -153 127 -96 107 -151 244 -151 373 0 162 73 261 213 290 23 5 55 7
71 4 16 -2 35 -4 42 -4z m14 -830 c18 -12 2 -12 -25 0 -13 6 -15 9 -5 9 8 0
22 -4 30 -9z m74 -15 c-25 -19 -34 -19 -34 0 0 10 10 15 27 15 26 0 26 -1 7
-15z"/>
<path d="M10830 16295 c19 -7 42 -13 50 -13 8 0 -1 6 -20 13 -19 7 -42 13 -50
13 -8 0 1 -6 20 -13z"/>
<path d="M7275 16245 c-25 -12 -26 -14 -5 -9 28 7 60 23 45 23 -5 0 -23 -6
-40 -14z"/>
<path d="M10985 16246 c17 -7 41 -16 55 -20 20 -5 19 -3 -5 8 -16 7 -41 16
-55 20 -20 5 -19 3 5 -8z"/>
<path d="M7180 16210 c-8 -5 -10 -10 -5 -10 6 0 17 5 25 10 8 5 11 10 5 10 -5
0 -17 -5 -25 -10z"/>
<path d="M11110 16200 c8 -5 20 -10 25 -10 6 0 3 5 -5 10 -8 5 -19 10 -25 10
-5 0 -3 -5 5 -10z"/>
<path d="M7130 16190 c-8 -5 -10 -10 -5 -10 6 0 17 5 25 10 8 5 11 10 5 10 -5
0 -17 -5 -25 -10z"/>
<path d="M11160 16182 c8 -5 26 -13 40 -16 17 -5 20 -4 10 2 -8 5 -26 13 -40
16 -17 5 -20 4 -10 -2z"/>
<path d="M7035 16150 c-33 -15 -55 -28 -50 -28 13 0 133 56 120 57 -5 0 -37
-13 -70 -29z"/>
<path d="M11250 16145 c14 -8 30 -14 35 -14 6 0 -1 6 -15 14 -14 8 -29 14 -35
14 -5 0 1 -6 15 -14z"/>
<path d="M11310 16120 c8 -5 20 -10 25 -10 6 0 3 5 -5 10 -8 5 -19 10 -25 10
-5 0 -3 -5 5 -10z"/>
<path d="M6818 16049 c-76 -38 -138 -71 -138 -74 0 -5 279 132 289 141 16 15
-33 -7 -151 -67z"/>
<path d="M11380 16090 c19 -11 40 -19 45 -19 6 0 -6 8 -25 19 -19 11 -39 19
-45 19 -5 0 6 -8 25 -19z"/>
<path d="M11461 16056 c10 -9 329 -166 329 -161 0 5 -316 165 -327 165 -3 0
-4 -2 -2 -4z"/>
<path d="M6554 15905 c-60 -36 -113 -71 -119 -77 -5 -6 4 -3 20 7 17 11 70 43
119 72 48 28 91 55 94 58 15 15 -15 -1 -114 -60z"/>
<path d="M11805 15883 c6 -5 37 -25 70 -43 33 -18 56 -28 50 -23 -5 6 -37 26
-70 44 -33 18 -55 28 -50 22z"/>
<path d="M11940 15806 c0 -3 9 -10 20 -16 11 -6 20 -8 20 -6 0 3 -9 10 -20 16
-11 6 -20 8 -20 6z"/>
<path d="M6304 15742 c-147 -104 -267 -205 -400 -337 l-131 -130 126 121 c130
124 277 245 413 341 66 46 88 65 76 63 -2 -1 -39 -26 -84 -58z"/>
<path d="M11995 15773 c6 -5 64 -45 130 -88 66 -43 162 -109 213 -146 50 -38
92 -67 92 -64 0 7 -170 131 -275 201 -101 67 -175 112 -160 97z"/>
<path d="M8318 15663 c18 -2 45 -2 60 0 15 2 0 4 -33 4 -33 0 -45 -2 -27 -4z"/>
<path d="M8635 15598 c-266 -143 -497 -297 -710 -477 -126 -106 -343 -326
-455 -463 l-95 -116 -90 -6 c-457 -30 -588 -39 -703 -49 l-132 -12 -49 -113
c-62 -142 -124 -251 -215 -372 -82 -110 -256 -287 -371 -379 l-80 -64 -5 29
c-4 20 -8 4 -13 -50 -10 -109 -9 -216 2 -216 5 0 44 25 87 56 332 237 571 506
725 816 48 97 57 108 84 113 50 8 446 35 659 45 109 5 202 12 206 17 3 4 45
58 92 118 373 480 896 868 1482 1100 108 43 124 47 180 42 l61 -5 -67 13 c-99
21 -323 45 -398 44 -60 -1 -74 -6 -195 -71z"/>
<path d="M8193 15653 c15 -2 37 -2 50 0 12 2 0 4 -28 4 -27 0 -38 -2 -22 -4z"/>
<path d="M8108 15643 c12 -2 30 -2 40 0 9 3 -1 5 -23 4 -22 0 -30 -2 -17 -4z"/>
<path d="M8043 15633 c9 -2 23 -2 30 0 6 3 -1 5 -18 5 -16 0 -22 -2 -12 -5z"/>
<path d="M7983 15623 c9 -2 23 -2 30 0 6 3 -1 5 -18 5 -16 0 -22 -2 -12 -5z"/>
<path d="M7923 15613 c9 -2 23 -2 30 0 6 3 -1 5 -18 5 -16 0 -22 -2 -12 -5z"/>
<path d="M7815 15595 c-27 -7 -41 -13 -30 -13 11 0 43 6 70 13 28 7 41 13 30
13 -11 0 -42 -6 -70 -13z"/>
<path d="M9325 15600 c17 -4 39 -8 50 -8 16 0 15 2 -5 8 -14 4 -36 8 -50 8
-22 0 -22 -1 5 -8z"/>
<path d="M9433 15577 l39 -12 -113 -29 c-83 -21 -108 -31 -94 -37 11 -4 32 -8
48 -8 15 -1 27 -5 27 -10 0 -4 -78 -39 -172 -76 -630 -250 -1094 -599 -1490
-1121 l-99 -132 -167 -6 c-199 -8 -649 -35 -677 -41 -13 -3 -31 -26 -49 -62
-71 -145 -217 -343 -366 -497 -157 -162 -394 -356 -436 -356 -9 0 -14 19 -16
66 l-3 65 -65 -45 -65 -46 -7 33 c-4 17 -4 5 -1 -28 7 -79 46 -211 84 -288 30
-59 117 -197 124 -197 9 0 64 114 59 122 -3 4 -2 8 3 7 4 -1 40 29 78 67 47
46 96 82 145 107 41 21 64 35 50 32 -54 -15 -128 -63 -198 -129 -40 -39 -72
-66 -71 -60 1 5 -7 30 -19 56 -19 42 -42 113 -42 130 0 3 51 45 113 91 287
217 509 459 669 728 l63 106 170 12 c94 6 284 16 423 21 140 5 255 10 256 12
1 2 54 73 118 158 221 296 426 498 708 700 282 202 650 383 959 471 l83 23
112 -28 c169 -42 338 -102 474 -167 121 -57 273 -144 321 -184 70 -57 112
-100 117 -120 5 -20 15 -24 72 -31 l67 -8 -50 -7 c-48 -6 -47 -6 17 -6 l66 1
-31 41 c-55 70 -199 208 -284 273 -164 124 -348 224 -563 304 -109 40 -381
119 -409 117 -9 0 1 -6 22 -12z"/>
<path d="M7738 15573 c7 -3 16 -2 19 1 4 3 -2 6 -13 5 -11 0 -14 -3 -6 -6z"/>
<path d="M7698 15563 c7 -3 16 -2 19 1 4 3 -2 6 -13 5 -11 0 -14 -3 -6 -6z"/>
<path d="M7600 15540 c-30 -10 -50 -18 -45 -19 6 0 37 8 70 18 33 11 53 19 45
19 -8 1 -40 -7 -70 -18z"/>
<path d="M7442 15493 c-40 -14 -72 -27 -69 -29 2 -2 41 9 88 25 46 16 77 29
69 29 -8 0 -48 -11 -88 -25z"/>
<path d="M12440 15468 c0 -3 37 -36 83 -74 650 -543 1031 -1175 1142 -1894 23
-144 31 -477 16 -637 -60 -641 -334 -1304 -871 -2107 -71 -107 -127 -200 -126
-207 6 -31 19 -49 30 -42 6 3 8 3 4 -2 -9 -10 18 -50 34 -50 6 0 12 -9 14 -19
1 -11 13 -29 25 -40 21 -20 22 -20 8 -1 -13 18 -13 19 3 6 10 -7 15 -17 13
-22 -3 -4 7 -21 22 -37 15 -15 21 -19 13 -8 -15 21 -15 21 7 2 13 -10 20 -22
17 -27 -2 -5 10 -23 28 -42 18 -18 24 -22 13 -8 l-20 26 27 -24 c15 -13 25
-28 22 -35 -2 -6 22 -36 53 -66 51 -48 53 -50 18 -10 l-40 45 42 -39 c23 -22
40 -43 36 -48 -6 -10 415 -438 430 -438 5 0 4 8 -4 18 -7 9 26 -21 74 -68 48
-46 87 -87 87 -90 0 -2 -35 29 -77 70 -43 41 -66 62 -53 46 14 -16 133 -130
265 -254 603 -566 858 -825 1102 -1117 132 -158 267 -336 353 -465 58 -87 96
-138 75 -100 -16 29 -143 216 -194 285 -46 62 -57 86 -77 170 -3 14 6 7 31
-20 25 -27 35 -34 31 -20 -3 11 -30 119 -61 240 -32 121 -59 224 -62 228 -3 5
-13 1 -24 -9 -20 -18 -19 -18 -34 33 -5 15 31 47 44 38 6 -3 11 -15 11 -26 0
-19 4 -18 43 11 402 303 968 520 1552 594 96 13 370 35 433 36 9 0 12 -40 12
-167 0 -369 75 -586 270 -784 80 -81 108 -103 180 -137 114 -55 196 -75 305
-75 168 0 294 51 410 168 113 112 155 215 155 375 0 137 -42 258 -124 354
l-33 39 41 22 c46 24 81 78 92 138 4 29 10 37 22 32 30 -11 169 -6 203 8 19 8
51 33 73 57 38 43 39 43 65 26 139 -91 270 -84 388 19 87 76 147 198 161 329
l7 60 49 12 c54 14 97 50 121 100 9 19 23 34 33 34 51 0 122 84 122 144 0 20
9 30 38 45 49 25 96 78 112 126 26 78 4 200 -49 280 l-20 30 100 88 c338 299
538 705 590 1196 15 146 6 474 -16 596 -55 305 -149 548 -295 769 -199 299
-437 484 -768 595 -491 164 -1143 94 -1543 -167 -192 -126 -329 -309 -382
-515 -9 -33 -19 -62 -22 -65 -14 -14 -500 -5 -650 12 -585 68 -1086 239 -1498
513 -162 107 -275 201 -402 335 -168 176 -276 343 -361 561 -26 64 -50 119
-53 122 -17 10 -441 42 -808 60 -118 7 -123 6 -123 -13 0 -22 -24 -20 370 -42
226 -13 522 -38 528 -45 8 -8 -41 -6 -298 15 -135 11 -333 23 -441 26 l-196 7
-64 81 c-81 104 -604 628 -729 731 -52 43 -103 85 -112 93 -10 8 -18 13 -18
10z m1884 -1028 c5 -17 4 -20 -2 -10 -5 8 -13 26 -16 40 -5 17 -4 20 2 10 5
-8 13 -26 16 -40z m42 -117 c-4 -4 -36 73 -35 85 0 4 9 -13 20 -37 11 -24 18
-46 15 -48z m-571 16 c262 -16 359 -27 364 -40 13 -41 126 -248 173 -319 226
-338 569 -629 991 -841 479 -241 1009 -370 1637 -397 l155 -7 3 -1575 c1 -866
0 -1589 -3 -1606 l-5 -30 -228 -12 c-125 -7 -276 -19 -337 -27 -507 -69 -973
-217 -1340 -427 -199 -114 -401 -259 -528 -378 l-78 -73 -72 72 -72 73 80 75
c300 282 749 535 1216 688 330 108 651 168 1077 201 l82 6 0 1409 0 1408 -32
5 c-18 2 -100 10 -181 16 -1160 88 -2207 674 -2632 1473 -33 61 -53 88 -68 92
-12 2 -105 9 -207 15 -102 6 -211 13 -243 16 l-59 6 -44 95 c-24 53 -44 98
-44 100 0 5 64 2 395 -18z m609 -86 c9 -18 14 -33 12 -33 -6 0 -36 55 -36 66
0 11 5 3 24 -33z m64 -111 c225 -378 675 -728 1202 -935 426 -167 828 -242
1355 -255 239 -5 272 -8 190 -13 -122 -9 -467 6 -630 26 -632 78 -1180 289
-1628 627 -177 133 -411 394 -510 568 -43 75 -25 60 21 -18z m-516 -121 c3 -3
25 -40 49 -81 134 -240 367 -509 609 -703 544 -437 1313 -724 2100 -785 l95
-7 3 -1316 2 -1316 -100 -7 c-55 -3 -151 -13 -213 -21 -815 -112 -1525 -423
-2040 -895 -57 -52 -70 -60 -83 -50 -13 12 -13 15 4 34 11 12 22 27 26 34 8
13 -79 99 -474 467 -262 243 -674 652 -797 790 -44 50 -86 91 -94 93 -18 4
-73 66 -106 120 -29 50 -32 105 -8 152 33 64 203 316 236 350 62 63 268 432
387 695 233 513 342 970 342 1435 0 334 -48 618 -155 918 -19 53 -35 101 -35
106 0 9 241 -2 252 -13z m4883 -231 c288 -28 555 -119 764 -263 102 -70 252
-222 331 -335 62 -87 190 -316 190 -337 0 -5 -26 40 -58 100 -70 133 -98 177
-172 275 -211 276 -493 443 -881 522 -101 20 -142 23 -359 23 -228 -1 -254 -3
-375 -28 -420 -89 -685 -253 -837 -520 -16 -28 -27 -43 -23 -32 11 37 70 127
125 193 235 280 783 450 1295 402z m77 -89 c459 -79 859 -382 1075 -816 66
-131 60 -137 -18 -21 -78 115 -164 215 -233 269 l-41 32 32 -40 c235 -289 292
-392 353 -639 40 -163 37 -188 -5 -51 -45 148 -86 244 -142 337 -26 43 -48 76
-50 75 -1 -2 13 -41 32 -86 100 -236 165 -641 151 -941 l-5 -125 24 90 c50
186 58 265 52 533 -3 136 -10 266 -15 290 -14 65 3 37 26 -43 30 -101 49 -212
62 -360 32 -343 -37 -684 -206 -1024 -81 -163 -229 -395 -301 -472 -44 -47
-157 -139 -172 -139 -3 0 28 36 69 81 41 44 102 119 136 166 65 90 200 330
192 339 -3 3 -18 -17 -33 -43 -16 -26 -69 -109 -118 -183 -145 -216 -346 -400
-436 -400 l-36 1 30 22 c114 84 282 256 365 373 22 32 -10 3 -90 -79 -130
-136 -250 -238 -328 -280 -45 -24 -152 -51 -152 -38 0 3 24 19 53 34 122 63
289 221 419 394 117 157 223 399 270 619 19 90 23 139 23 279 0 184 -10 255
-56 397 -84 259 -229 414 -436 464 -17 4 6 -16 62 -54 50 -33 113 -84 142
-114 48 -48 153 -208 153 -231 0 -5 -48 37 -108 94 -133 129 -214 190 -343
259 -55 30 -109 65 -120 78 -52 67 14 143 125 144 140 1 316 -127 450 -329 36
-54 66 -92 66 -86 0 21 -46 135 -88 218 -135 268 -416 494 -679 545 -34 7
-102 11 -151 8 -75 -3 -99 -9 -163 -40 -118 -55 -203 -153 -254 -290 -37 -100
-119 -154 -164 -109 -20 20 -21 20 -21 2 0 -24 37 -70 64 -81 18 -7 16 -9 -13
-9 -43 -1 -94 30 -122 75 -33 53 -23 139 27 241 50 100 124 175 224 226 43 22
62 36 45 32 -43 -9 -154 -62 -193 -92 -59 -45 -48 -14 19 50 73 72 161 125
267 160 40 14 75 27 78 30 16 16 -122 29 -251 24 -230 -9 -347 -50 -461 -162
-77 -76 -104 -141 -104 -254 0 -102 19 -160 75 -232 49 -63 49 -71 -2 -39 -42
25 -88 89 -109 153 -21 59 -23 186 -5 231 6 16 10 31 7 33 -2 2 -13 -21 -25
-52 -26 -69 -28 -181 -4 -250 10 -31 35 -68 68 -102 48 -50 50 -53 26 -53 -38
0 -124 53 -160 99 -60 76 -84 145 -88 256 -3 68 0 117 11 155 8 30 12 57 10
59 -9 9 -88 -87 -115 -141 -41 -81 -59 -159 -59 -253 0 -153 48 -252 163 -336
50 -37 67 -55 67 -73 0 -36 -25 -52 -57 -37 -30 14 -40 9 -18 -9 26 -22 16
-31 -16 -15 -16 9 -43 37 -60 63 l-29 47 6 -35 c11 -68 46 -176 72 -223 14
-27 54 -75 88 -107 77 -72 147 -101 259 -107 l80 -5 -47 48 c-76 78 -109 175
-88 254 26 95 101 150 204 150 67 0 106 -17 139 -62 33 -45 47 -91 47 -157 0
-57 -23 -111 -59 -138 -9 -7 -11 -13 -5 -13 22 0 67 44 85 84 28 62 25 132
-10 200 -23 46 -24 53 -9 39 45 -40 63 -93 63 -183 0 -125 -41 -205 -143 -278
-87 -62 -244 -93 -362 -72 -108 19 -184 62 -275 154 -174 176 -233 359 -222
684 6 188 26 274 93 411 36 72 62 110 113 160 138 137 377 244 641 287 140 23
381 14 515 -20 233 -58 440 -156 630 -299 39 -30 39 -29 -10 22 -162 170 -375
279 -685 350 l-85 19 97 1 c55 1 145 -7 210 -18z m-339 -276 c-82 -26 -177
-80 -235 -133 -64 -59 -90 -98 -124 -181 -13 -31 -24 -49 -24 -40 0 27 66 151
105 196 62 72 235 173 295 172 19 -1 15 -4 -17 -14z m-312 -131 c-96 -104
-146 -252 -139 -406 2 -49 1 -88 -3 -88 -11 0 -64 70 -90 120 -36 68 -34 178
3 242 16 25 47 63 70 83 43 37 170 105 196 105 8 0 -9 -25 -37 -56z m-860
-151 c-12 -20 -14 -14 -5 12 4 9 9 14 11 11 3 -2 0 -13 -6 -23z m1783 -37 c37
-14 96 -43 130 -64 l61 -37 -80 -6 c-88 -7 -124 -18 -174 -56 -60 -46 -78
-131 -42 -208 26 -56 60 -85 183 -153 148 -82 222 -138 310 -231 90 -95 157
-222 184 -345 22 -102 15 -294 -15 -416 -20 -80 -91 -284 -96 -278 -2 2 -8 48
-14 103 -52 460 -196 687 -488 767 -64 17 -105 21 -228 21 -167 0 -254 -17
-368 -72 -34 -16 -63 -29 -64 -27 -2 1 2 18 7 37 17 60 12 200 -10 273 -26 84
-104 172 -182 207 -116 51 -275 21 -369 -70 l-48 -46 -6 35 c-10 53 -20 65
-103 128 -42 33 -86 75 -96 93 -18 32 -17 31 18 -8 22 -25 64 -56 103 -75 60
-29 75 -32 157 -33 101 0 175 21 201 58 l15 21 32 -31 c18 -17 49 -39 68 -48
43 -22 149 -32 178 -16 13 7 53 75 102 174 45 89 93 177 106 194 33 43 106 92
179 120 52 20 74 23 170 20 89 -3 123 -9 179 -31z m-1817 -68 c-3 -8 -6 -5 -6
6 -1 11 2 17 5 13 3 -3 4 -12 1 -19z m820 -10 c-3 -8 -6 -5 -6 6 -1 11 2 17 5
13 3 -3 4 -12 1 -19z m-830 -30 c-3 -8 -6 -5 -6 6 -1 11 2 17 5 13 3 -3 4 -12
1 -19z m600 -30 c-3 -8 -6 -5 -6 6 -1 11 2 17 5 13 3 -3 4 -12 1 -19z m220 0
c-3 -8 -6 -5 -6 6 -1 11 2 17 5 13 3 -3 4 -12 1 -19z m-830 -20 c-3 -8 -6 -5
-6 6 -1 11 2 17 5 13 3 -3 4 -12 1 -19z m2060 -6 c72 -23 131 -60 201 -126 56
-53 165 -196 149 -196 -2 0 -17 19 -32 43 -79 119 -193 219 -298 259 -70 28
-179 28 -233 2 -21 -10 -49 -34 -61 -53 -26 -39 -30 -34 -8 9 36 71 164 98
282 62z m-1364 -131 c12 -13 36 -32 52 -42 17 -11 24 -19 17 -19 -26 0 -63 33
-102 92 -22 33 -40 65 -40 72 0 6 12 -9 26 -34 14 -25 35 -56 47 -69z m-706
52 c-3 -10 -5 -4 -5 12 0 17 2 24 5 18 2 -7 2 -21 0 -30z m240 15 c-3 -8 -6
-5 -6 6 -1 11 2 17 5 13 3 -3 4 -12 1 -19z m97 -182 c28 -28 72 -68 99 -89 26
-21 47 -43 46 -50 0 -9 -2 -9 -6 1 -2 7 -37 37 -77 67 -40 30 -85 71 -99 92
-29 42 -57 105 -56 125 0 7 9 -11 21 -41 13 -35 39 -72 72 -105z m2466 109 c0
-5 -5 -3 -10 5 -5 8 -10 20 -10 25 0 6 5 3 10 -5 5 -8 10 -19 10 -25z m20 -50
c0 -5 -5 -3 -10 5 -5 8 -10 20 -10 25 0 6 5 3 10 -5 5 -8 10 -19 10 -25z m39
-125 c0 -9 -4 -8 -9 5 -5 11 -9 27 -9 35 0 9 4 8 9 -5 5 -11 9 -27 9 -35z
m-1918 -48 c54 -22 150 -130 149 -166 -1 -6 -10 6 -21 27 -48 90 -141 147
-240 147 -96 0 -220 -70 -249 -140 -7 -17 -15 -29 -17 -26 -8 8 26 63 58 95
79 79 216 106 320 63z m1946 -74 c-3 -8 -6 -5 -6 6 -1 11 2 17 5 13 3 -3 4
-12 1 -19z m10 -40 c-3 -8 -6 -5 -6 6 -1 11 2 17 5 13 3 -3 4 -12 1 -19z m10
-50 c-3 -8 -6 -5 -6 6 -1 11 2 17 5 13 3 -3 4 -12 1 -19z m-2411 -70 c0 -35 3
-80 7 -101 l8 -38 -23 15 c-27 18 -98 108 -98 125 0 6 8 11 18 11 10 0 33 11
52 25 19 13 36 24 36 25 1 0 1 -28 0 -62z m-88 -110 c53 -58 113 -95 196 -120
l61 -18 -47 5 c-108 11 -231 111 -297 242 -33 66 -24 65 11 -1 18 -32 52 -81
76 -108z m689 140 c-3 -8 -6 -5 -6 6 -1 11 2 17 5 13 3 -3 4 -12 1 -19z m1820
-20 c-3 -8 -6 -5 -6 6 -1 11 2 17 5 13 3 -3 4 -12 1 -19z m-1810 -20 c-3 -8
-6 -5 -6 6 -1 11 2 17 5 13 3 -3 4 -12 1 -19z m1820 -60 c-3 -7 -5 -2 -5 12 0
14 2 19 5 13 2 -7 2 -19 0 -25z m-2775 -212 c181 -204 482 -269 785 -171 22 7
22 7 7 -42 -16 -50 -21 -214 -8 -255 5 -16 -13 -4 -64 44 -207 195 -468 198
-647 7 -126 -135 -139 -330 -32 -471 47 -61 114 -92 196 -92 110 1 197 63 232
166 l18 53 11 -30 c28 -73 40 -159 29 -224 -14 -92 -86 -247 -149 -322 l-28
-34 1 60 c0 84 -27 158 -77 211 -35 36 -49 44 -79 44 -56 0 -72 -32 -61 -118
20 -157 -1 -288 -70 -437 -32 -69 -114 -199 -163 -258 l-23 -29 0 1044 1 1043
35 -66 c19 -37 58 -92 86 -123z m2785 102 c-3 -8 -6 -5 -6 6 -1 11 2 17 5 13
3 -3 4 -12 1 -19z m-1159 -23 c103 -25 171 -62 242 -134 62 -62 127 -166 145
-231 3 -14 -14 17 -40 68 -80 161 -177 238 -354 283 -73 18 -104 21 -225 16
-153 -5 -227 -22 -340 -79 -54 -27 -154 -116 -184 -163 -7 -11 -5 -5 4 14 51
108 232 211 419 241 79 12 254 4 333 -15z m-52 -70 c89 -30 140 -61 212 -129
100 -94 179 -224 223 -366 31 -98 32 -283 3 -374 l-19 -58 -1 138 c-2 212 -44
345 -149 475 -44 56 -151 144 -230 189 -48 28 -42 21 51 -58 71 -60 142 -146
191 -229 91 -156 114 -397 55 -589 l-17 -57 -1 154 c-1 108 -6 175 -18 223
-18 76 -71 182 -116 236 l-30 35 30 -55 c44 -81 80 -203 89 -303 28 -299 -82
-550 -364 -833 -130 -131 -215 -194 -265 -194 -20 0 -22 -2 -10 -10 8 -5 37
-10 63 -10 46 0 52 3 120 68 95 90 127 111 199 133 68 21 134 23 193 5 36 -11
40 -15 37 -42 l-2 -29 21 28 c47 61 161 88 209 49 22 -18 21 -18 -44 -14 -64
4 -67 3 -100 -30 -59 -59 -58 -118 4 -156 18 -11 22 -12 13 -2 -23 25 -16 85
13 113 75 75 176 21 176 -94 0 -62 -20 -93 -83 -129 -39 -22 -56 -25 -145 -25
l-101 0 -104 52 -104 51 45 -39 c60 -52 150 -95 230 -110 92 -16 90 -15 90
-47 0 -50 -31 -67 -119 -67 -86 0 -150 25 -283 110 -68 44 -71 45 -43 15 89
-96 240 -190 306 -190 16 0 19 -4 14 -22 -9 -29 -42 -58 -66 -58 -32 0 -108
43 -229 131 -216 155 -307 200 -408 198 l-57 -1 45 -13 c87 -25 170 -71 170
-94 0 -4 -42 0 -92 10 -131 26 -341 35 -463 20 -229 -29 -422 -108 -556 -228
l-43 -38 23 34 c13 18 60 62 103 96 138 109 347 214 628 315 176 63 346 143
442 207 251 168 457 496 458 728 0 72 -18 173 -40 222 -11 24 -50 72 -96 115
-79 75 -158 167 -150 175 9 9 52 -22 115 -81 l65 -61 -47 60 c-25 33 -69 78
-97 99 -28 21 -49 41 -46 43 11 12 109 -21 147 -49 40 -29 41 -29 34 -6 -20
63 -78 138 -126 164 -40 20 -119 17 -183 -7 -70 -26 -130 -23 -134 7 -2 17 7
26 50 44 46 20 65 22 148 18 l95 -5 -55 18 c-167 54 -433 -23 -496 -143 -20
-39 -18 -122 6 -168 26 -51 35 -55 49 -22 26 61 79 102 131 102 l35 -1 -27
-15 c-34 -18 -48 -43 -47 -86 1 -34 3 -32 13 14 7 31 50 58 93 58 68 -1 123
-63 123 -139 0 -98 -67 -161 -173 -161 -104 0 -190 56 -248 162 -31 58 -34 70
-34 148 0 78 3 90 34 148 58 107 174 192 316 233 39 12 98 18 168 18 90 1 121
-3 183 -24z m-725 -226 c-5 -13 -10 -19 -10 -12 -1 15 10 45 15 40 3 -2 0 -15
-5 -28z m279 -29 c0 -5 -7 -10 -15 -10 -9 0 -29 -7 -45 -15 -17 -9 -30 -13
-30 -10 0 5 71 44 83 45 4 0 7 -4 7 -10z m-293 -22 c-3 -8 -6 -5 -6 6 -1 11 2
17 5 13 3 -3 4 -12 1 -19z m717 8 c56 -23 49 -34 -9 -14 -42 14 -64 16 -95 9
-22 -5 -40 -5 -40 -1 0 21 98 25 144 6z m783 -33 c-3 -10 -5 -4 -5 12 0 17 2
24 5 18 2 -7 2 -21 0 -30z m-1060 -18 c54 -28 98 -80 107 -130 l6 -30 -12 33
c-19 48 -62 97 -101 115 -57 28 -143 22 -203 -12 -28 -16 -58 -41 -68 -56 -18
-27 -36 -26 -35 3 0 15 1 15 7 -1 7 -16 10 -14 30 12 27 36 58 58 110 77 56
20 103 17 159 -11z m-722 -48 c40 -20 95 -55 121 -79 46 -42 124 -150 124
-172 0 -6 -14 13 -31 43 -135 236 -445 310 -620 148 -19 -18 -47 -48 -62 -67
-17 -21 -24 -25 -17 -12 33 67 125 139 213 168 73 24 185 12 272 -29z m1484
-7 c0 -9 -4 -8 -9 5 -5 11 -9 27 -9 35 0 9 4 8 9 -5 5 -11 9 -27 9 -35z m288
-12 c-3 -8 -6 -5 -6 6 -1 11 2 17 5 13 3 -3 4 -12 1 -19z m-280 -30 c-3 -8 -6
-5 -6 6 -1 11 2 17 5 13 3 -3 4 -12 1 -19z m-1551 -3 c141 -42 263 -197 280
-354 l4 -46 -17 43 c-25 61 -80 130 -137 171 l-49 35 38 -50 c21 -27 50 -74
64 -104 24 -51 26 -64 25 -195 -1 -110 -5 -157 -22 -220 -40 -145 -135 -320
-245 -447 -27 -32 -45 -58 -40 -58 21 0 101 61 150 112 119 127 204 317 233
520 8 57 9 53 5 -37 -4 -106 -32 -222 -80 -331 -70 -157 -224 -337 -448 -521
-260 -215 -337 -284 -387 -350 l-50 -66 0 64 c0 57 4 71 38 124 63 98 128 173
352 407 117 122 233 249 257 281 58 80 97 165 128 278 61 228 38 411 -67 525
-68 74 -166 112 -256 98 l-45 -7 35 -18 c72 -37 108 -107 94 -183 -9 -47 -56
-86 -104 -86 -28 0 -33 -3 -22 -10 31 -20 78 -11 115 21 39 35 44 29 16 -17
-25 -41 -101 -78 -143 -70 -89 18 -148 96 -156 207 -6 92 11 149 62 205 58 63
136 93 242 94 44 0 103 -7 130 -15z m1821 -27 c-3 -8 -6 -5 -6 6 -1 11 2 17 5
13 3 -3 4 -12 1 -19z m-260 -10 c-3 -8 -6 -5 -6 6 -1 11 2 17 5 13 3 -3 4 -12
1 -19z m250 -40 c-3 -8 -6 -5 -6 6 -1 11 2 17 5 13 3 -3 4 -12 1 -19z m-240
-10 c-3 -8 -6 -5 -6 6 -1 11 2 17 5 13 3 -3 4 -12 1 -19z m-528 -73 c120 -101
134 -126 139 -240 7 -160 -44 -307 -155 -445 -138 -173 -330 -292 -803 -497
-107 -47 -210 -91 -229 -100 -32 -14 -28 -8 40 67 205 225 295 365 351 540 21
69 23 92 22 275 -1 170 -4 210 -21 267 l-20 66 63 -48 c87 -67 141 -83 264
-78 91 3 102 5 141 33 60 42 101 112 107 180 2 30 6 55 8 55 3 0 45 -34 93
-75z m538 3 c-3 -7 -5 -2 -5 12 0 14 2 19 5 13 2 -7 2 -19 0 -25z m210 10 c-3
-8 -6 -5 -6 6 -1 11 2 17 5 13 3 -3 4 -12 1 -19z m-2246 -19 c-5 -13 -10 -19
-10 -12 -1 15 10 45 15 40 3 -2 0 -15 -5 -28z m317 4 c11 -10 28 -31 38 -48
15 -26 13 -25 -15 7 -18 21 -40 42 -49 48 -9 5 -12 10 -6 10 7 0 21 -8 32 -17z
m-331 -55 c-3 -8 -6 -5 -6 6 -1 11 2 17 5 13 3 -3 4 -12 1 -19z m2060 -20 c-3
-7 -5 -2 -5 12 0 14 2 19 5 13 2 -7 2 -19 0 -25z m-1258 -48 c0 -8 -7 1 -14
20 -18 46 -17 64 0 25 8 -16 14 -37 14 -45z m-400 0 c0 -10 -3 -8 -9 5 -12 27
-12 43 0 25 5 -8 9 -22 9 -30z m1805 -19 c-9 -23 -18 -40 -20 -38 -2 2 4 22
13 45 9 23 18 40 20 38 2 -2 -4 -22 -13 -45z m-137 -33 c-3 -7 -5 -2 -5 12 0
14 2 19 5 13 2 -7 2 -19 0 -25z m-1250 -30 c-3 -8 -6 -5 -6 6 -1 11 2 17 5 13
3 -3 4 -12 1 -19z m1344 -35 c-11 -21 -20 -35 -21 -31 0 12 33 78 38 74 2 -2
-6 -21 -17 -43z m-1334 -35 c-3 -7 -5 -2 -5 12 0 14 2 19 5 13 2 -7 2 -19 0
-25z m880 -40 c-3 -7 -5 -2 -5 12 0 14 2 19 5 13 2 -7 2 -19 0 -25z m423 4 c0
-5 -7 -17 -15 -28 -14 -18 -14 -17 -4 9 12 27 19 34 19 19z m-433 -74 c-3 -8
-6 -5 -6 6 -1 11 2 17 5 13 3 -3 4 -12 1 -19z m379 -25 c-26 -51 -79 -135 -74
-118 5 17 90 165 94 165 2 0 -7 -21 -20 -47z m-401 -63 c-9 -28 -19 -50 -21
-48 -2 2 4 27 13 56 9 28 19 50 21 47 2 -2 -4 -27 -13 -55z m-1118 28 c-3 -8
-6 -5 -6 6 -1 11 2 17 5 13 3 -3 4 -12 1 -19z m-10 -50 c-3 -8 -6 -5 -6 6 -1
11 2 17 5 13 3 -3 4 -12 1 -19z m-331 -64 c48 -50 43 -60 -6 -12 -21 22 -44
37 -50 33 -5 -3 -10 -1 -10 4 0 22 34 10 66 -25z m1388 -65 c-133 -223 -364
-381 -874 -599 -329 -140 -463 -216 -630 -356 -92 -77 -190 -188 -263 -299
-50 -74 -65 -84 -21 -12 48 76 150 201 220 268 164 157 329 256 673 404 437
188 605 286 761 444 62 63 109 121 135 168 22 39 42 69 44 67 2 -2 -18 -40
-45 -85z m-1112 -16 c-17 -32 -53 -92 -80 -132 -57 -83 -209 -261 -224 -261
-5 0 27 39 72 88 84 89 201 254 234 330 11 23 21 40 23 38 2 -2 -9 -30 -25
-63z m-225 -35 c-3 -8 -6 -5 -6 6 -1 11 2 17 5 13 3 -3 4 -12 1 -19z m-100
-130 c-3 -8 -6 -5 -6 6 -1 11 2 17 5 13 3 -3 4 -12 1 -19z m-30 -130 c-3 -8
-6 -5 -6 6 -1 11 2 17 5 13 3 -3 4 -12 1 -19z m-23 -67 c-9 -23 -18 -40 -20
-38 -2 2 4 22 13 45 9 23 18 40 20 38 2 -2 -4 -22 -13 -45z m1964 -22 c25 -32
52 -85 52 -101 0 -7 -10 7 -21 32 -11 25 -37 63 -57 84 -20 22 -27 32 -15 24
12 -8 31 -25 41 -39z m-2018 -96 c-18 -32 -81 -125 -140 -208 -59 -82 -112
-159 -118 -170 -6 -11 -12 -15 -12 -9 0 6 52 85 116 175 64 90 130 190 147
221 18 31 33 55 35 53 3 -2 -11 -30 -28 -62z m2077 -45 c-3 -8 -6 -5 -6 6 -1
11 2 17 5 13 3 -3 4 -12 1 -19z m-6377 -443 c91 -91 163 -165 160 -165 -3 0
-79 74 -170 165 -91 91 -163 165 -160 165 3 0 79 -74 170 -165z m5375 131
c183 -47 354 -150 388 -233 20 -51 30 -135 22 -175 l-8 -32 -18 50 c-23 62
-78 128 -138 166 -66 41 -69 34 -8 -25 68 -66 97 -138 96 -235 l-1 -67 -17 55
c-51 160 -130 240 -304 309 -111 44 -116 38 -12 -16 118 -62 214 -154 240
-232 22 -67 22 -143 1 -176 -33 -51 -143 -23 -205 52 l-31 37 33 11 c114 37
-52 239 -301 364 -73 37 -129 59 -98 38 152 -100 231 -182 267 -277 38 -99 25
-102 -84 -20 -102 77 -182 122 -282 156 -71 25 -95 28 -205 28 -106 1 -136 -3
-195 -23 -171 -58 -320 -168 -436 -320 -65 -85 -65 -51 -1 49 153 238 418 405
740 466 92 18 291 23 407 12 l70 -7 -45 15 c-90 30 -308 29 -554 -1 -65 -8
-11 11 85 31 205 41 430 41 594 0z m-465 -325 c31 -11 78 -36 105 -53 l50 -33
-60 -6 c-33 -3 -45 -6 -27 -7 49 -3 150 -40 197 -72 36 -25 75 -80 75 -105 0
-4 -17 8 -37 25 -66 58 -136 84 -238 87 l-90 2 89 -19 c138 -30 204 -62 233
-113 24 -43 12 -48 -29 -13 -42 36 -113 68 -178 80 -26 5 -19 0 26 -19 67 -28
144 -88 144 -111 0 -28 -51 -13 -187 55 -157 79 -264 117 -355 126 -35 3 -78
8 -95 11 -62 9 -33 -12 35 -26 113 -22 324 -147 357 -210 20 -40 20 -75 -1
-37 -21 38 -46 37 -31 -2 9 -23 7 -34 -6 -55 -34 -52 -101 -28 -167 61 -60 79
-136 159 -175 183 -46 28 -120 40 -180 29 -63 -11 -193 -75 -264 -129 -29 -23
-55 -39 -57 -37 -7 7 106 145 157 193 106 100 228 171 353 205 98 26 276 22
356 -10z m-4455 -241 c38 -38 67 -70 64 -70 -2 0 -36 32 -74 70 -38 39 -67 70
-64 70 2 0 36 -31 74 -70z m4355 -18 c119 -68 170 -118 170 -167 -1 -11 -7 -3
-15 20 -16 46 -34 61 -159 133 -50 30 -80 50 -66 47 14 -4 45 -19 70 -33z
m-359 -12 c10 -6 19 -15 19 -21 0 -5 -11 -2 -25 7 -19 12 -38 15 -73 11 -31
-4 -40 -3 -27 3 28 12 83 12 106 0z m-203 -80 l-53 -50 60 35 c75 44 128 60
155 45 42 -23 13 -67 -91 -136 -80 -53 -161 -144 -198 -224 -49 -104 -28 -275
49 -390 29 -43 39 -80 22 -80 -15 0 -93 104 -125 165 -25 50 -31 75 -35 147
-4 83 5 132 45 238 4 12 2 12 -12 -1 -9 -9 -27 -45 -40 -80 l-24 -64 0 50 c-1
62 22 172 44 217 42 82 146 155 253 177 2 1 -21 -21 -50 -49z m-3643 -30 c38
-38 67 -70 64 -70 -2 0 -36 32 -74 70 -38 39 -67 70 -64 70 2 0 36 -31 74 -70z
m4016 -66 c27 -45 49 -83 49 -85 0 -2 -36 -3 -81 -1 -150 6 -276 -55 -331
-162 -29 -56 -36 -166 -13 -226 28 -77 28 -77 5 -83 -18 -5 -25 2 -42 40 -31
71 -22 178 22 262 44 83 111 156 170 186 61 31 107 84 121 141 11 43 12 44 31
27 10 -9 41 -54 69 -99z m-697 42 c-3 -15 -8 -25 -11 -23 -2 3 -1 17 3 31 3
15 8 25 11 23 2 -3 1 -17 -3 -31z m-137 -58 c-3 -7 -5 -2 -5 12 0 14 2 19 5
13 2 -7 2 -19 0 -25z m-3022 -68 c44 -44 77 -80 75 -80 -3 0 -41 36 -85 80
-44 44 -77 80 -75 80 3 0 41 -36 85 -80z m3207 -139 c-3 -165 -1 -200 17 -270
30 -120 73 -202 147 -280 91 -97 154 -124 294 -128 l105 -2 -80 15 c-92 17
-161 48 -188 85 -40 55 -12 135 45 127 36 -6 26 9 -15 21 l-32 9 32 1 c25 1
45 -10 88 -48 92 -81 195 -90 257 -24 38 41 48 66 48 120 0 35 3 44 10 33 17
-26 11 -136 -9 -191 -19 -50 -19 -51 -1 -34 36 33 55 103 55 205 -1 81 -5 104
-27 152 -27 59 -53 82 -108 98 -44 13 -100 -10 -100 -41 l0 -21 18 22 c16 20
21 21 43 10 36 -20 48 -41 49 -85 0 -49 -18 -77 -64 -99 -96 -45 -186 7 -211
122 -22 101 30 177 143 212 128 40 245 19 318 -56 104 -108 159 -316 119 -451
-34 -115 -129 -204 -265 -247 -221 -70 -408 -31 -554 117 -85 85 -123 148
-167 277 -29 86 -33 106 -32 210 0 86 5 136 22 197 17 67 40 133 45 133 1 0
-1 -85 -2 -189z m697 88 c67 -15 145 -57 192 -103 43 -43 99 -122 99 -140 -1
-6 -10 7 -22 28 -30 59 -116 139 -179 169 -145 68 -327 51 -410 -40 -15 -15
-34 -41 -42 -58 -9 -16 -16 -25 -16 -20 -1 25 48 92 86 118 72 51 190 70 292
46z m-3599 -246 c0 -8 -13 5 -110 105 l-105 107 108 -105 c59 -57 107 -106
107 -107z m3217 45 c-3 -8 -6 -5 -6 6 -1 11 2 17 5 13 3 -3 4 -12 1 -19z m692
-98 c0 -10 -3 -8 -9 5 -12 27 -12 43 0 25 5 -8 9 -22 9 -30z m-842 -32 c-3 -8
-6 -5 -6 6 -1 11 2 17 5 13 3 -3 4 -12 1 -19z m850 -10 c-3 -8 -6 -5 -6 6 -1
11 2 17 5 13 3 -3 4 -12 1 -19z m-790 -116 c23 -30 26 -31 46 -17 41 29 73 19
141 -44 71 -66 111 -81 170 -61 20 6 45 23 56 37 11 14 20 21 20 16 0 -15 -40
-53 -67 -64 -33 -12 -90 -11 -116 2 -12 7 -48 36 -79 65 -31 30 -61 54 -68 54
-6 0 -27 -7 -47 -15 -19 -8 -37 -15 -38 -15 -7 0 -64 98 -69 120 -4 16 0 12
10 -10 9 -19 27 -50 41 -68z m800 66 c-3 -8 -6 -5 -6 6 -1 11 2 17 5 13 3 -3
4 -12 1 -19z m-470 -150 c-21 -7 -32 -7 -40 1 -8 8 0 11 29 10 39 -1 39 -1 11
-11z"/>
<path d="M14793 11309 c-73 -36 -74 -42 -71 -420 l3 -331 32 -28 c67 -60 162
-60 222 1 l31 31 0 194 0 195 -72 -3 c-57 -2 -73 -6 -73 -18 0 -8 10 -16 23
-18 l22 -3 -2 -186 c-3 -175 -4 -186 -24 -199 -17 -12 -23 -12 -40 0 -18 14
-19 32 -22 374 -3 341 -2 360 16 383 17 21 23 22 46 11 26 -11 26 -13 26 -117
l0 -105 50 0 50 0 0 89 c0 75 -3 92 -22 116 -43 55 -123 70 -195 34z m166
-141 c1 -39 -3 -68 -9 -68 -6 0 -10 35 -9 88 1 103 17 85 18 -20z m-190 -265
c0 -204 -4 -340 -9 -328 -5 11 -9 157 -9 325 -1 273 3 350 15 350 2 0 4 -156
3 -347z m191 -160 c0 -93 -5 -175 -10 -183 -6 -10 -10 46 -10 168 0 115 4 182
10 182 6 0 10 -62 10 -167z"/>
<path d="M13840 11310 c0 -6 7 -13 15 -16 13 -5 15 -58 15 -389 0 -331 -2
-384 -15 -389 -8 -3 -15 -10 -15 -16 0 -6 54 -10 150 -10 l150 0 0 130 0 130
-50 0 -50 0 0 -115 0 -115 -30 0 -30 0 0 385 c0 336 2 385 15 385 8 0 15 7 15
15 0 12 -16 15 -85 15 -52 0 -85 -4 -85 -10z m77 -597 c-1 -109 -2 -22 -2 192
0 215 1 304 2 198 2 -105 2 -281 0 -390z m173 -93 c0 -60 -4 -100 -10 -100 -6
0 -10 40 -10 100 0 60 4 100 10 100 6 0 10 -40 10 -100z"/>
<path d="M14170 11305 c0 -8 7 -15 15 -15 13 0 15 -49 15 -385 0 -336 -2 -385
-15 -385 -8 0 -15 -7 -15 -15 0 -12 16 -15 80 -15 64 0 80 3 80 15 0 8 -7 15
-15 15 -13 0 -15 49 -15 385 0 336 2 385 15 385 8 0 15 7 15 15 0 12 -16 15
-80 15 -64 0 -80 -3 -80 -15z m80 -400 c0 -250 -4 -385 -10 -385 -6 0 -10 135
-10 385 0 250 4 385 10 385 6 0 10 -135 10 -385z"/>
<path d="M14360 11305 c0 -8 7 -15 15 -15 13 0 15 -49 15 -385 0 -336 -2 -385
-15 -385 -8 0 -15 -7 -15 -15 0 -11 12 -15 50 -15 38 0 50 4 50 15 0 8 -7 15
-15 15 -13 0 -15 37 -15 277 0 152 2 274 4 272 2 -2 32 -133 67 -291 l63 -288
43 0 43 0 0 400 c0 349 2 400 15 400 8 0 15 7 15 15 0 11 -12 15 -50 15 -38 0
-50 -4 -50 -15 0 -8 7 -15 15 -15 13 0 15 -33 14 -242 0 -134 -2 -238 -4 -233
-3 6 -27 114 -55 240 -28 127 -53 238 -56 248 -4 14 -17 17 -70 17 -50 0 -64
-3 -64 -15z m169 -403 c45 -206 80 -376 77 -379 -9 -9 -11 0 -96 386 -83 379
-85 391 -72 376 5 -6 46 -178 91 -383z"/>
<path d="M15060 11305 c0 -8 7 -15 15 -15 13 0 15 -49 15 -385 0 -336 -2 -385
-15 -385 -8 0 -15 -7 -15 -15 0 -13 23 -15 150 -15 l150 0 0 130 0 130 -50 0
-50 0 0 -115 0 -115 -35 0 -35 0 0 195 0 195 55 0 c48 0 55 2 55 20 0 18 -7
20 -55 20 l-55 0 0 170 0 170 35 0 35 0 0 -110 0 -110 50 0 50 0 0 125 0 125
-150 0 c-127 0 -150 -2 -150 -15z m67 -592 c-1 -109 -2 -22 -2 192 0 215 1
304 2 198 2 -105 2 -281 0 -390z m170 435 c-2 -29 -3 -8 -3 47 0 55 1 79 3 53
2 -26 2 -71 0 -100z m0 -580 c-2 -29 -3 -6 -3 52 0 58 1 81 3 53 2 -29 2 -77
0 -105z"/>
<path d="M15400 11305 c0 -8 7 -15 15 -15 13 0 15 -49 15 -385 0 -336 -2 -385
-15 -385 -8 0 -15 -7 -15 -15 0 -12 16 -15 80 -15 64 0 80 3 80 15 0 8 -7 15
-15 15 -13 0 -15 28 -15 195 l0 195 29 0 c16 0 33 -6 39 -13 6 -7 12 -85 14
-191 3 -173 4 -178 27 -197 14 -11 39 -19 62 -19 41 0 49 12 24 36 -12 13 -15
47 -15 180 l0 166 -29 29 -29 29 29 29 c29 29 29 30 29 151 0 138 -10 168 -64
194 -48 22 -246 24 -246 1z m80 -400 c0 -250 -4 -385 -10 -385 -6 0 -10 135
-10 385 0 250 4 385 10 385 6 0 10 -135 10 -385z m118 373 c17 -17 17 -299 0
-316 -7 -7 -25 -12 -40 -12 l-28 0 0 170 0 170 28 0 c15 0 33 -5 40 -12z m62
-158 c0 -63 -5 -122 -10 -130 -7 -10 -10 33 -10 130 0 97 3 140 10 130 5 -8
10 -67 10 -130z m0 -425 c3 -116 2 -171 -5 -164 -6 6 -11 85 -13 182 -2 94 0
168 5 164 4 -5 10 -87 13 -182z"/>
<path d="M15770 11305 c0 -8 7 -15 15 -15 13 0 15 -49 15 -385 0 -336 -2 -385
-15 -385 -8 0 -15 -7 -15 -15 0 -12 16 -15 80 -15 64 0 80 3 80 15 0 8 -7 15
-15 15 -13 0 -15 49 -15 385 0 336 2 385 15 385 8 0 15 7 15 15 0 12 -16 15
-80 15 -64 0 -80 -3 -80 -15z m67 -592 c-1 -109 -2 -22 -2 192 0 215 1 304 2
198 2 -105 2 -281 0 -390z"/>
<path d="M15960 11305 c0 -8 7 -15 15 -15 13 0 15 -49 15 -385 0 -336 -2 -385
-15 -385 -8 0 -15 -7 -15 -15 0 -13 23 -15 150 -15 l150 0 0 130 0 130 -50 0
-50 0 0 -115 0 -115 -35 0 -35 0 0 195 0 195 55 0 c48 0 55 2 55 20 0 18 -7
20 -55 20 l-55 0 0 170 0 170 35 0 35 0 0 -110 0 -110 50 0 50 0 0 125 0 125
-150 0 c-127 0 -150 -2 -150 -15z m67 -592 c-1 -109 -2 -22 -2 192 0 215 1
304 2 198 2 -105 2 -281 0 -390z m183 482 c0 -57 -4 -95 -10 -95 -6 0 -10 38
-10 95 0 57 4 95 10 95 6 0 10 -38 10 -95z m0 -575 c0 -60 -4 -100 -10 -100
-6 0 -10 40 -10 100 0 60 4 100 10 100 6 0 10 -40 10 -100z"/>
<path d="M7282 15433 c-35 -14 -61 -27 -59 -29 3 -4 128 44 136 52 10 10 -19
1 -77 -23z"/>
<path d="M7160 15380 c-19 -11 -30 -19 -25 -19 6 0 26 8 45 19 19 11 31 19 25
19 -5 0 -26 -8 -45 -19z"/>
<path d="M7048 15329 c-32 -16 -58 -32 -58 -34 0 -5 119 52 129 61 13 12 -22
-1 -71 -27z"/>
<path d="M6910 15254 c-248 -138 -501 -351 -675 -566 -76 -95 -189 -260 -229
-333 -32 -60 -24 -48 75 104 203 312 460 563 767 747 133 79 138 83 132 83 -3
1 -34 -15 -70 -35z"/>
<path d="M5719 15213 l-34 -38 38 34 c20 19 37 36 37 38 0 8 -8 0 -41 -34z"/>
<path d="M5659 15143 l-24 -28 28 24 c15 14 27 26 27 28 0 8 -8 1 -31 -24z"/>
<path d="M5614 15088 l-19 -23 23 19 c12 11 22 21 22 23 0 8 -8 2 -26 -19z"/>
<path d="M5536 14987 c-85 -115 -225 -337 -213 -337 2 0 30 42 60 94 31 51 92
143 136 205 44 61 78 111 75 111 -2 0 -28 -33 -58 -73z"/>
<path d="M10213 14873 c37 -2 97 -2 135 0 37 2 6 3 -68 3 -74 0 -105 -1 -67
-3z"/>
<path d="M10028 14863 c17 -2 47 -2 65 0 17 2 3 4 -33 4 -36 0 -50 -2 -32 -4z"/>
<path d="M10457 14863 c18 -2 50 -2 70 0 21 2 7 4 -32 4 -38 0 -55 -2 -38 -4z"/>
<path d="M9928 14853 c12 -2 32 -2 45 0 12 2 2 4 -23 4 -25 0 -35 -2 -22 -4z"/>
<path d="M9853 14843 c9 -2 25 -2 35 0 9 3 1 5 -18 5 -19 0 -27 -2 -17 -5z"/>
<path d="M9793 14833 c9 -2 23 -2 30 0 6 3 -1 5 -18 5 -16 0 -22 -2 -12 -5z"/>
<path d="M9700 14820 c-20 -6 -21 -8 -5 -8 11 0 34 4 50 8 27 7 27 8 5 8 -14
0 -36 -4 -50 -8z"/>
<path d="M9595 14795 c-54 -17 -33 -18 30 -1 28 8 41 14 30 14 -11 0 -38 -5
-60 -13z"/>
<path d="M9490 14765 c-19 -7 -28 -13 -20 -13 8 0 31 6 50 13 19 7 28 13 20
13 -8 0 -31 -6 -50 -13z"/>
<path d="M9317 14705 c-199 -78 -413 -207 -588 -353 -534 -448 -909 -1296
-968 -2187 -10 -142 -14 -417 -26 -1530 -11 -1037 -17 -1275 -31 -1275 -7 0
-39 12 -71 26 -32 15 -77 32 -101 40 l-42 13 59 -54 c32 -31 58 -63 57 -73 0
-9 4 -16 10 -15 6 1 11 -3 11 -10 1 -7 13 -39 27 -72 30 -71 35 -181 11 -262
-22 -75 -88 -167 -153 -213 -57 -41 -76 -48 -269 -100 -61 -16 -136 -39 -166
-50 -62 -23 -139 -86 -164 -133 -15 -30 -15 -32 11 -54 22 -19 35 -22 69 -18
33 4 38 3 22 -5 -15 -8 -10 -9 25 -5 25 3 89 10 143 16 61 6 110 17 130 29 18
10 59 25 91 34 33 8 80 30 105 48 25 17 40 24 32 14 -25 -30 -103 -79 -166
-103 -33 -13 -46 -21 -30 -18 78 15 233 121 221 151 -3 7 0 16 6 20 7 5 8 2 4
-7 -4 -8 0 -5 9 6 43 50 100 214 119 340 21 136 27 380 40 1635 8 767 18 1449
21 1515 26 532 166 1087 381 1518 273 544 669 922 1174 1122 52 21 97 39 99
41 11 10 -22 0 -102 -31z"/>
<path d="M10215 14618 c-92 -108 -102 -265 -28 -413 14 -27 34 -62 44 -76 l18
-26 71 24 c44 15 116 28 188 34 206 18 218 20 251 40 21 13 42 39 59 77 47
100 27 229 -44 291 -38 34 -78 46 -176 56 -54 6 -68 5 -68 -6 0 -8 -25 -27
-55 -43 -63 -33 -127 -99 -168 -174 -35 -64 -60 -179 -52 -241 l6 -46 -20 35
c-32 54 -60 153 -72 250 -10 83 -9 91 12 132 11 23 32 58 46 76 33 44 23 52
-12 10z m319 -60 c3 -13 6 -41 6 -63 l0 -40 -50 -2 c-57 -3 -119 -31 -148 -68
-25 -32 -36 -66 -52 -165 -17 -106 -20 -107 -17 -8 3 77 8 96 40 162 40 80
106 154 166 186 46 24 47 24 55 -2z m6 -142 c0 -13 3 -31 6 -40 5 -13 1 -13
-34 1 -60 23 -108 11 -154 -40 -42 -44 -46 -42 -22 8 25 53 95 93 167 94 33 1
37 -2 37 -23z m-20 -61 c17 -9 30 -22 30 -30 0 -12 -7 -11 -37 5 -21 11 -56
20 -78 20 -29 0 -36 3 -25 10 23 15 77 12 110 -5z"/>
<path d="M5244 14509 c-30 -61 -54 -113 -52 -115 2 -2 29 48 61 111 31 63 55
115 52 115 -3 0 -30 -50 -61 -111z"/>
<path d="M9685 14578 c-191 -46 -459 -160 -607 -257 -163 -107 -322 -250 -443
-401 -33 -41 -62 -77 -65 -80 -23 -23 -151 -230 -199 -321 -51 -98 -161 -347
-161 -365 0 -3 5 -4 12 -2 7 3 32 -22 56 -53 55 -74 89 -102 172 -144 58 -29
70 -40 85 -77 25 -63 30 -179 11 -261 -31 -132 -120 -290 -247 -437 l-59 -69
35 -7 c20 -3 54 -3 77 0 31 5 39 4 35 -6 -44 -116 -27 -309 40 -456 l26 -57 9
40 c34 152 56 222 98 310 27 55 58 132 70 172 l22 72 28 -32 c30 -34 137 -103
146 -94 3 3 0 25 -7 48 -12 43 -15 185 -8 434 3 134 -11 206 -61 307 l-28 57
40 20 40 19 61 -49 c131 -106 296 -132 477 -77 146 45 237 116 296 229 25 47
29 65 29 144 0 89 -7 112 -63 216 -1 4 15 -2 38 -13 28 -14 61 -20 103 -20 60
0 137 22 137 39 0 38 25 193 41 257 28 109 61 186 110 258 l41 61 -22 56 c-12
31 -26 86 -30 122 -4 36 -16 86 -28 110 -25 52 -123 173 -151 189 -11 5 -32
37 -47 70 -29 65 -33 67 -109 48z m-992 -1933 c0 -114 -17 -178 -95 -353 -33
-75 -73 -171 -89 -212 -15 -41 -28 -68 -28 -60 -2 39 44 193 81 274 79 175
107 286 109 419 1 69 2 77 11 52 6 -16 10 -70 11 -120z"/>
<path d="M5172 14355 c-17 -37 -14 -45 4 -12 9 16 14 31 11 33 -2 2 -9 -7 -15
-21z"/>
<path d="M5146 14295 c-9 -26 -7 -32 5 -12 6 10 9 21 6 23 -2 3 -7 -2 -11 -11z"/>
<path d="M5121 14229 c-6 -18 -9 -34 -7 -36 2 -2 9 10 15 28 6 18 9 34 7 36
-2 2 -9 -10 -15 -28z"/>
<path d="M5924 14209 c-14 -28 -24 -53 -22 -55 2 -2 16 21 31 51 15 30 25 55
22 55 -3 0 -16 -23 -31 -51z"/>
<path d="M10977 14103 c-76 -109 -207 -163 -396 -163 -255 -1 -384 -93 -441
-315 -36 -139 -41 -261 -50 -1085 -5 -448 -13 -1058 -16 -1354 -7 -528 -7
-539 12 -532 10 4 35 10 54 14 33 5 33 6 10 12 -18 5 -8 8 40 14 l65 7 0 297
c1 605 16 1944 25 2147 22 482 96 598 401 626 112 10 198 27 316 61 23 6 46 8
50 4 6 -6 6 -1061 -1 -1713 -1 -55 2 -99 5 -97 11 7 20 1673 9 1809 -11 142
-38 305 -50 305 -4 0 -19 -17 -33 -37z"/>
<path d="M5862 14075 c-17 -37 -14 -45 4 -12 9 16 14 31 11 33 -2 2 -9 -7 -15
-21z"/>
<path d="M4992 13983 c-55 -209 -74 -369 -71 -608 l2 -180 -89 -28 c-334 -107
-724 -168 -1093 -171 l-203 -1 -24 84 c-102 351 -371 582 -819 701 -519 139
-1081 62 -1475 -201 -382 -256 -659 -773 -709 -1329 -38 -406 30 -804 190
-1125 87 -176 171 -288 344 -460 l150 -151 -35 -68 c-25 -49 -35 -84 -38 -129
-7 -113 26 -182 113 -232 36 -21 44 -32 49 -65 8 -49 65 -116 105 -125 20 -4
38 -21 60 -56 31 -51 90 -88 139 -89 19 0 22 -5 22 -38 0 -52 25 -145 59 -217
38 -82 97 -145 173 -186 56 -30 71 -34 138 -34 74 1 121 17 192 67 15 11 22 6
52 -28 20 -23 52 -49 72 -59 39 -18 149 -26 196 -13 25 8 27 6 38 -43 14 -56
82 -139 114 -139 14 0 9 -11 -23 -51 -78 -98 -121 -223 -121 -354 0 -249 179
-467 430 -526 76 -17 212 -15 290 5 262 67 446 252 544 546 41 123 55 229 59
435 l2 150 60 -3 c484 -23 1025 -161 1428 -364 197 -99 404 -237 570 -382 l78
-69 -7 38 c-6 34 -5 36 12 27 39 -21 55 -50 63 -113 l8 -64 2 93 c0 51 8 125
17 165 16 74 76 214 114 266 11 17 19 35 18 42 -2 7 4 13 12 14 8 0 14 8 14
18 -1 9 1 15 5 12 4 -2 36 26 72 62 164 168 407 303 714 398 61 19 103 34 96
35 -47 1 -331 -105 -472 -175 -109 -55 -248 -154 -330 -235 l-78 -78 -93 75
c-534 427 -1274 707 -2053 776 l-140 12 -3 1310 c-2 1040 0 1310 10 1317 7 4
31 8 53 8 66 0 300 29 450 55 213 38 400 85 662 170 6 2 17 -13 24 -33 19 -62
115 -248 168 -326 161 -238 357 -419 569 -525 92 -46 254 -98 350 -112 114
-16 307 -7 406 20 98 26 249 97 331 156 126 89 225 225 271 369 110 347 -70
722 -400 836 -74 25 -79 25 -38 -1 43 -28 35 -36 -10 -9 -39 23 -143 60 -167
60 -9 -1 16 -11 54 -24 95 -30 158 -69 229 -140 32 -32 55 -53 51 -46 -5 9 -4
11 4 6 6 -4 9 -11 6 -16 -3 -5 8 -30 24 -57 98 -159 106 -390 21 -565 -68
-140 -177 -242 -345 -324 -143 -69 -224 -87 -395 -88 -120 0 -160 3 -233 23
-372 97 -667 354 -867 756 -38 77 -83 181 -99 230 -95 297 -110 637 -41 977
18 90 25 147 19 153 -5 5 -9 22 -9 37 0 52 -18 29 -38 -49z m-2492 -212 c384
-67 684 -223 835 -435 44 -64 97 -163 109 -206 4 -14 -13 16 -37 65 -89 184
-214 304 -426 410 -164 82 -369 141 -585 166 -146 17 -444 7 -580 -20 -481
-97 -803 -339 -1043 -786 -23 -44 -43 -75 -43 -70 0 19 114 215 179 306 240
338 603 537 1071 588 126 14 386 5 520 -18z m-282 -56 c-2 -3 -42 -12 -89 -21
-262 -49 -472 -154 -644 -319 -44 -42 -69 -70 -55 -61 14 9 69 46 122 82 166
111 373 199 568 241 119 25 420 25 538 0 246 -54 481 -172 597 -299 64 -71
126 -191 157 -303 19 -71 22 -105 22 -300 1 -200 -1 -227 -22 -299 -59 -204
-204 -387 -360 -454 -229 -99 -530 2 -598 200 -38 110 -17 243 47 304 l31 29
-31 -50 c-57 -92 -51 -207 14 -272 44 -44 65 -43 27 2 -53 59 -56 168 -7 252
37 61 76 83 151 83 153 0 243 -124 200 -273 -12 -42 -30 -71 -74 -118 l-57
-62 86 5 c200 10 342 140 400 366 23 91 24 117 3 77 -21 -41 -43 -64 -78 -82
l-29 -15 24 34 24 33 -29 -19 c-54 -35 -103 18 -58 62 10 9 39 31 65 49 98 68
149 176 149 318 0 106 -12 167 -53 251 -25 54 -116 171 -125 161 -2 -1 4 -30
12 -62 11 -42 15 -92 12 -165 -4 -118 -26 -179 -94 -258 -38 -45 -118 -92
-156 -92 -21 0 -21 2 10 26 101 80 140 256 82 377 l-20 42 8 -35 c4 -19 7 -69
7 -110 -1 -61 -6 -87 -28 -135 -31 -65 -67 -109 -109 -131 -42 -22 -43 -17 -5
26 20 21 49 63 64 92 25 47 28 64 28 148 0 86 -3 101 -32 162 -55 117 -167
201 -323 242 -86 23 -334 33 -414 16 -64 -13 -63 -20 4 -39 122 -34 294 -143
334 -211 10 -18 14 -30 9 -27 -5 3 -33 22 -61 41 -44 30 -188 87 -217 86 -6 0
20 -13 56 -29 132 -56 212 -133 273 -261 40 -85 47 -179 17 -228 -26 -41 -77
-72 -116 -71 -26 0 -27 1 -10 9 29 11 46 34 55 75 l8 36 -23 -26 c-48 -51
-112 -17 -156 83 -73 163 -117 223 -209 282 -177 114 -444 87 -678 -67 -135
-89 -306 -282 -380 -428 -27 -54 -99 -246 -88 -235 2 3 35 52 73 110 174 263
422 399 552 302 34 -25 48 -64 35 -98 -7 -20 -37 -42 -119 -86 -152 -83 -220
-134 -352 -262 -62 -61 -111 -104 -108 -96 18 48 97 171 138 216 26 29 91 83
145 119 82 57 92 66 62 60 -71 -14 -183 -78 -245 -140 -108 -109 -195 -305
-231 -520 -42 -256 18 -609 147 -867 136 -273 370 -532 572 -634 26 -13 47
-26 47 -28 0 -2 -29 2 -64 8 -100 19 -210 98 -396 285 -151 153 -158 147 -19
-16 64 -75 169 -175 259 -245 l35 -27 -36 -1 c-43 0 -95 32 -204 127 -96 84
-177 187 -296 375 -49 78 -92 144 -95 147 -12 12 97 -200 137 -266 60 -97 137
-198 213 -275 36 -38 63 -68 58 -68 -19 0 -152 113 -195 166 -210 258 -393
636 -457 944 -43 209 -43 512 0 733 20 102 58 243 64 235 2 -1 -3 -50 -11
-108 -19 -139 -12 -524 11 -625 22 -98 58 -236 61 -233 2 2 -1 55 -5 118 -21
296 43 713 149 965 22 52 38 95 36 95 -7 0 -66 -100 -103 -175 -39 -79 -122
-318 -122 -351 0 -10 -3 -15 -6 -11 -9 9 34 201 70 307 49 146 127 273 281
454 31 37 54 70 51 73 -13 13 -195 -188 -261 -289 -38 -59 -71 -105 -73 -103
-9 8 93 202 157 297 229 342 586 575 986 642 76 13 294 21 283 11z m145 -320
c40 -19 97 -56 126 -82 51 -45 131 -153 131 -177 0 -6 -13 12 -29 39 -59 103
-172 192 -308 241 -53 20 -60 24 -30 20 21 -3 71 -21 110 -41z m254 -69 c180
-86 250 -225 193 -379 -18 -49 -82 -137 -98 -137 -4 0 -5 42 -4 94 6 156 -42
294 -140 401 -27 30 -44 55 -36 55 7 0 46 -15 85 -34z m2363 -165 c0 -5 -8
-11 -17 -14 -10 -2 -79 -23 -153 -46 -314 -96 -601 -143 -975 -161 -227 -10
-349 -4 -351 20 -1 11 0 12 4 1 3 -12 46 -13 256 -8 425 10 799 71 1136 185
101 35 100 34 100 23z m-2938 -53 c106 -53 144 -99 234 -282 41 -85 85 -162
96 -173 34 -30 140 -25 205 11 29 16 60 37 68 46 15 17 17 17 39 -5 34 -34 98
-49 198 -48 109 2 187 33 248 99 22 24 40 41 40 38 0 -17 -49 -69 -103 -110
-77 -58 -94 -79 -108 -127 l-10 -38 -44 40 c-56 51 -105 76 -183 91 -157 31
-302 -56 -362 -219 -28 -73 -36 -174 -21 -251 7 -34 11 -63 9 -65 -2 -2 -38
12 -80 30 -108 48 -203 65 -361 65 -224 0 -351 -44 -472 -165 -121 -120 -184
-282 -225 -574 -11 -80 -22 -147 -24 -148 -2 -2 -17 34 -34 80 -106 293 -120
523 -42 729 48 128 177 282 315 375 33 22 100 62 149 89 108 58 153 96 177
149 67 146 -43 265 -244 265 l-52 0 30 21 c53 35 128 72 200 96 59 19 87 23
176 20 99 -2 110 -4 181 -39z m597 -28 c0 -10 -3 -8 -9 5 -12 27 -12 43 0 25
5 -8 9 -22 9 -30z m828 -32 c-3 -8 -6 -5 -6 6 -1 11 2 17 5 13 3 -3 4 -12 1
-19z m-820 -10 c-3 -8 -6 -5 -6 6 -1 11 2 17 5 13 3 -3 4 -12 1 -19z m240 -30
c-3 -8 -6 -5 -6 6 -1 11 2 17 5 13 3 -3 4 -12 1 -19z m590 0 c-3 -8 -6 -5 -6
6 -1 11 2 17 5 13 3 -3 4 -12 1 -19z m3413 -35 l55 -57 -55 49 c-30 26 -59 52
-64 57 -6 5 -6 8 0 8 5 0 34 -26 64 -57z m-4233 5 c-3 -7 -5 -2 -5 12 0 14 2
19 5 13 2 -7 2 -19 0 -25z m220 -20 c-3 -8 -6 -5 -6 6 -1 11 2 17 5 13 3 -3 4
-12 1 -19z m-1254 -14 c48 -16 97 -63 97 -92 0 -10 -7 -3 -16 15 -35 70 -187
100 -294 58 -106 -43 -217 -136 -288 -242 -42 -64 -52 -69 -20 -11 32 58 163
189 223 224 109 63 208 79 298 48z m3427 -74 c15 -47 26 -88 24 -92 -6 -9
-166 -59 -316 -98 -250 -65 -552 -114 -780 -127 -64 -3 -122 -9 -129 -14 -10
-6 -14 -306 -17 -1413 -5 -1398 -5 -1406 15 -1406 11 0 78 -5 149 -10 797 -63
1532 -331 2064 -754 47 -38 90 -70 96 -73 9 -3 -40 -116 -83 -192 -3 -4 -27
14 -143 109 -430 351 -1085 607 -1765 690 -89 10 -350 30 -412 30 -31 0 -33 3
-49 58 -9 31 -29 90 -45 130 l-29 73 0 1479 0 1480 93 0 c213 0 521 33 762 81
146 29 389 92 470 123 22 8 46 14 54 13 7 -1 25 -39 41 -87z m-2211 0 c-31
-58 -88 -120 -110 -120 -6 0 11 20 38 44 27 25 59 66 72 95 14 28 26 49 29 47
2 -3 -11 -32 -29 -66z m418 -2 c-3 -8 -6 -5 -6 6 -1 11 2 17 5 13 3 -3 4 -12
1 -19z m-2541 -25 c-8 -15 -15 -25 -16 -21 0 12 23 58 27 54 3 -2 -2 -17 -11
-33z m-25 -60 c-12 -20 -14 -14 -5 12 4 9 9 14 11 11 3 -2 0 -13 -6 -23z
m2522 -35 c-17 -30 -53 -72 -84 -96 -30 -24 -69 -56 -86 -71 -18 -16 -33 -25
-33 -20 0 4 19 23 41 41 90 71 147 130 164 168 10 22 20 38 23 36 2 -3 -9 -29
-25 -58z m-2576 -130 c-3 -8 -6 -5 -6 6 -1 11 2 17 5 13 3 -3 4 -12 1 -19z
m2163 -51 c61 -30 130 -99 130 -130 0 -6 -7 0 -17 13 -56 85 -134 130 -233
138 -88 6 -153 -22 -217 -92 -26 -28 -43 -44 -38 -36 54 99 158 154 270 143
22 -3 69 -19 105 -36z m-2183 -19 c-3 -8 -6 -5 -6 6 -1 11 2 17 5 13 3 -3 4
-12 1 -19z m-10 -50 c-3 -8 -6 -5 -6 6 -1 11 2 17 5 13 3 -3 4 -12 1 -19z
m-10 -40 c-3 -8 -6 -5 -6 6 -1 11 2 17 5 13 3 -3 4 -12 1 -19z m1814 -45 c-12
-20 -14 -14 -5 12 4 9 9 14 11 11 3 -2 0 -13 -6 -23z m-1824 -15 c-3 -7 -5 -2
-5 12 0 14 2 19 5 13 2 -7 2 -19 0 -25z m2445 -3 c16 -14 37 -25 47 -25 31 0
31 -12 0 -56 -36 -49 -87 -100 -94 -93 -2 3 0 23 6 44 6 22 9 65 7 97 -2 32
-2 58 0 58 2 0 17 -11 34 -25z m-635 -27 c-3 -8 -6 -5 -6 6 -1 11 2 17 5 13 3
-3 4 -12 1 -19z m762 -43 c-78 -129 -183 -209 -286 -220 -47 -5 -46 -5 20 15
37 11 84 31 105 44 50 31 131 121 162 179 13 25 26 44 29 42 2 -3 -11 -29 -30
-60z m-212 23 c-3 -7 -5 -2 -5 12 0 14 2 19 5 13 2 -7 2 -19 0 -25z m-2370
-10 c-3 -8 -6 -5 -6 6 -1 11 2 17 5 13 3 -3 4 -12 1 -19z m1810 -20 c-3 -8 -6
-5 -6 6 -1 11 2 17 5 13 3 -3 4 -12 1 -19z m-1820 -60 c-3 -7 -5 -2 -5 12 0
14 2 19 5 13 2 -7 2 -19 0 -25z m1566 -117 c89 -23 197 -77 255 -127 40 -34
102 -118 102 -138 0 -5 -13 10 -28 35 -60 94 -161 162 -307 209 -98 31 -312
39 -417 16 -159 -35 -269 -113 -350 -248 -45 -74 -51 -68 -8 8 83 145 200 224
385 260 93 18 266 11 368 -15z m-1576 -13 c-3 -7 -5 -2 -5 12 0 14 2 19 5 13
2 -7 2 -19 0 -25z m2822 -355 l0 -338 -18 57 c-27 83 -62 138 -130 201 -165
152 -425 135 -614 -43 l-62 -58 6 67 c5 66 -2 170 -16 225 -7 26 -6 28 11 22
10 -4 55 -17 99 -28 66 -17 99 -20 195 -15 188 8 335 67 458 183 37 35 68 63
70 64 1 0 2 -152 1 -337z m-1274 312 c146 -38 279 -135 335 -247 75 -152 8
-349 -145 -424 -47 -22 -65 -26 -120 -22 -95 6 -153 55 -162 140 -11 93 51
163 135 155 44 -5 82 -30 82 -54 0 -7 4 -13 9 -13 18 0 -2 46 -32 73 l-31 27
29 0 c43 0 90 -32 117 -79 13 -23 28 -40 33 -38 6 2 18 20 28 40 25 49 24 125
-2 175 -59 116 -342 188 -506 129 -39 -14 -37 -15 56 -10 89 5 101 4 153 -20
52 -24 56 -28 46 -47 -14 -26 -59 -26 -135 0 -68 23 -145 26 -183 6 -49 -26
-92 -83 -122 -161 -9 -23 -8 -25 8 -16 10 6 24 17 32 25 13 17 99 46 134 46
19 0 19 -1 -4 -16 -37 -25 -107 -94 -143 -139 -29 -38 -28 -38 24 11 56 53
108 89 115 81 9 -9 -70 -103 -157 -187 -97 -94 -104 -109 -119 -246 -17 -164
23 -309 132 -475 71 -107 192 -238 288 -310 89 -67 270 -154 485 -234 306
-113 535 -234 663 -350 29 -26 57 -57 64 -69 7 -14 -2 -9 -28 15 -157 146
-434 239 -716 239 -99 0 -295 -22 -357 -40 -96 -28 -5 51 99 86 l75 24 -71 -3
c-61 -2 -84 -9 -155 -45 -46 -23 -146 -87 -223 -142 -197 -142 -244 -162 -286
-120 -35 35 -26 53 38 72 32 10 85 35 118 57 64 44 198 165 149 135 -199 -120
-266 -147 -352 -142 -72 4 -103 26 -103 70 0 32 -2 31 90 47 79 14 172 58 225
106 l40 35 -68 -35 c-101 -52 -167 -68 -252 -63 -133 9 -205 64 -205 158 0 80
52 138 114 126 47 -9 74 -32 87 -76 11 -35 10 -42 -7 -61 -19 -22 -19 -22 1
-11 68 35 72 103 9 161 -35 32 -39 33 -101 29 -64 -4 -65 -4 -43 14 25 20 93
24 137 7 37 -14 72 -47 90 -84 l14 -30 -5 31 c-3 16 -6 36 -8 44 -5 22 78 42
155 36 96 -7 157 -39 260 -134 88 -81 89 -82 142 -82 30 0 57 5 60 10 3 6 -3
10 -15 10 -110 0 -423 326 -543 565 -68 137 -82 200 -82 380 0 155 2 163 33
255 18 52 43 110 54 129 37 59 -2 22 -43 -42 -22 -33 -48 -90 -60 -126 -25
-82 -39 -241 -30 -343 3 -43 3 -74 -1 -70 -22 22 -48 171 -48 277 0 265 104
455 356 654 l29 23 -40 -23 c-124 -70 -232 -166 -294 -263 -77 -119 -116 -303
-101 -480 3 -36 2 -62 -3 -57 -20 20 -40 132 -40 226 0 165 41 292 144 440 92
134 212 225 340 259 72 20 239 20 314 1z m149 -259 c19 -8 37 -19 41 -26 4 -7
-5 -5 -23 4 -17 9 -38 16 -47 16 -8 0 -15 5 -15 10 0 13 4 13 44 -4z m253 -18
c-3 -8 -6 -5 -6 6 -1 11 2 17 5 13 3 -3 4 -12 1 -19z m-1166 -15 c-12 -20 -14
-14 -5 12 4 9 9 14 11 11 3 -2 0 -13 -6 -23z m577 21 c38 -11 24 -22 -15 -13
-40 8 -117 -4 -140 -23 -8 -6 -16 -8 -20 -5 -3 4 14 16 38 27 44 20 95 25 137
14z m299 -46 c32 -8 61 -26 95 -58 26 -25 48 -42 48 -36 0 5 3 7 6 3 3 -3 3
-11 -1 -17 -5 -8 -17 0 -36 23 -41 49 -103 77 -173 77 -85 0 -141 -33 -179
-105 -9 -16 -16 -26 -17 -22 0 16 29 63 57 89 56 54 116 68 200 46z m300 -30
c-3 -8 -6 -5 -6 6 -1 11 2 17 5 13 3 -3 4 -12 1 -19z m595 -23 c29 -14 70 -43
92 -63 40 -39 96 -118 96 -136 -1 -6 -10 7 -22 28 -27 53 -107 129 -162 155
-188 91 -437 -8 -551 -219 -19 -36 -35 -61 -35 -56 0 4 15 36 32 70 60 113
174 206 298 242 71 21 187 11 252 -21z m-2095 -17 c-3 -7 -5 -2 -5 12 0 14 2
19 5 13 2 -7 2 -19 0 -25z m1360 10 c-3 -8 -6 -5 -6 6 -1 11 2 17 5 13 3 -3 4
-12 1 -19z m-1070 -20 c-3 -8 -6 -5 -6 6 -1 11 2 17 5 13 3 -3 4 -12 1 -19z
m-10 -40 c-3 -8 -6 -5 -6 6 -1 11 2 17 5 13 3 -3 4 -12 1 -19z m1809 1 c115
-43 175 -127 176 -247 1 -107 -44 -191 -119 -224 -68 -30 -156 -1 -188 62 -24
46 -18 51 19 14 27 -27 42 -34 73 -34 22 0 47 6 57 13 15 11 12 12 -24 9 -50
-5 -86 17 -106 65 -30 72 6 157 82 196 l47 24 -46 6 c-134 19 -256 -51 -324
-183 -27 -54 -28 -58 -28 -220 1 -154 3 -171 29 -250 62 -185 105 -246 382
-532 118 -123 235 -249 260 -281 41 -56 44 -63 44 -123 0 -35 -4 -64 -8 -64
-4 0 -24 16 -43 36 -18 20 -110 98 -204 174 -296 240 -420 371 -512 538 -73
133 -124 318 -122 445 l1 62 13 -85 c16 -103 57 -234 98 -315 74 -149 184
-268 279 -304 25 -9 24 -7 -11 28 -21 21 -56 63 -78 92 -223 302 -289 686
-151 869 64 84 65 86 13 48 -66 -48 -101 -92 -130 -164 -29 -70 -35 -40 -9 47
32 108 98 205 176 260 85 61 247 78 354 38z m-2079 -11 c-3 -8 -6 -5 -6 6 -1
11 2 17 5 13 3 -3 4 -12 1 -19z m260 -30 c-3 -8 -6 -5 -6 6 -1 11 2 17 5 13 3
-3 4 -12 1 -19z m670 -10 c-3 -8 -6 -5 -6 6 -1 11 2 17 5 13 3 -3 4 -12 1 -19z
m-920 -10 c-3 -8 -6 -5 -6 6 -1 11 2 17 5 13 3 -3 4 -12 1 -19z m240 -40 c-3
-7 -5 -2 -5 12 0 14 2 19 5 13 2 -7 2 -19 0 -25z m623 6 c0 -55 23 -115 62
-159 73 -83 159 -108 285 -81 84 17 139 44 195 94 29 26 39 31 34 17 -44 -112
-58 -361 -31 -520 33 -188 137 -364 364 -614 l73 -81 -43 19 c-24 10 -129 56
-233 101 -586 253 -811 429 -910 709 -26 75 -30 100 -30 196 -1 94 2 116 20
150 19 35 187 193 207 194 4 1 7 -11 7 -25z m-853 -6 c-3 -8 -6 -5 -6 6 -1 11
2 17 5 13 3 -3 4 -12 1 -19z m220 -60 c-3 -8 -6 -5 -6 6 -1 11 2 17 5 13 3 -3
4 -12 1 -19z m1720 -8 c-19 -16 -40 -44 -47 -60 -7 -17 -15 -29 -17 -26 -12
12 68 116 89 116 5 0 -7 -13 -25 -30z m-1891 -87 c-5 -5 -36 86 -35 101 0 6 9
-13 20 -43 10 -30 17 -56 15 -58z m2221 55 c-3 -8 -6 -5 -6 6 -1 11 2 17 5 13
3 -3 4 -12 1 -19z m-2060 -50 c-3 -7 -5 -2 -5 12 0 14 2 19 5 13 2 -7 2 -19 0
-25z m-137 -53 c0 -5 -5 -3 -10 5 -5 8 -10 20 -10 25 0 6 5 3 10 -5 5 -8 10
-19 10 -25z m1397 13 c-3 -8 -6 -5 -6 6 -1 11 2 17 5 13 3 -3 4 -12 1 -19z
m400 -10 c-3 -7 -5 -2 -5 12 0 14 2 19 5 13 2 -7 2 -19 0 -25z m463 -520 l-1
-533 -20 25 c-36 43 -108 196 -133 284 -28 94 -33 171 -21 294 7 72 6 85 -10
102 -51 57 -157 -13 -191 -126 -8 -26 -14 -75 -14 -108 l-1 -61 -24 30 c-44
53 -115 188 -137 259 -25 81 -21 203 8 275 l18 45 14 -45 c67 -205 335 -237
452 -53 16 25 34 68 41 95 7 27 14 49 16 49 2 0 3 -240 3 -532z m-873 490 c-3
-8 -6 -5 -6 6 -1 11 2 17 5 13 3 -3 4 -12 1 -19z m-1367 -23 c0 -5 -5 -3 -10
5 -5 8 -10 20 -10 25 0 6 5 3 10 -5 5 -8 10 -19 10 -25z m107 3 c-3 -7 -5 -2
-5 12 0 14 2 19 5 13 2 -7 2 -19 0 -25z m1250 -30 c-3 -7 -5 -2 -5 12 0 14 2
19 5 13 2 -7 2 -19 0 -25z m-1208 -263 c20 -35 20 -37 3 -15 -23 27 -152 272
-152 286 0 5 29 -45 63 -111 35 -66 74 -138 86 -160z m1198 193 c-3 -8 -6 -5
-6 6 -1 11 2 17 5 13 3 -3 4 -12 1 -19z m-870 -80 c-3 -8 -6 -5 -6 6 -1 11 2
17 5 13 3 -3 4 -12 1 -19z m10 -50 c-3 -8 -6 -5 -6 6 -1 11 2 17 5 13 3 -3 4
-12 1 -19z m1130 -10 c-3 -7 -5 -2 -5 12 0 14 2 19 5 13 2 -7 2 -19 0 -25z
m10 -50 c-3 -8 -6 -5 -6 6 -1 11 2 17 5 13 3 -3 4 -12 1 -19z m-997 -213 c136
-177 353 -314 799 -505 412 -176 536 -253 739 -456 72 -74 132 -139 132 -146
-1 -7 -17 7 -37 32 -67 83 -209 214 -304 282 -120 85 -268 162 -537 277 -118
51 -249 109 -292 131 -311 156 -490 313 -594 517 -40 81 -30 77 13 -4 21 -40
58 -98 81 -128z m1036 98 c-5 -5 -36 74 -36 90 1 6 10 -10 20 -37 11 -28 18
-51 16 -53z m354 66 c0 -5 -4 -8 -9 -5 -15 10 -63 -36 -82 -78 -10 -23 -19
-34 -19 -26 0 21 37 81 63 102 25 20 47 23 47 7z m-214 -284 c29 -38 85 -106
125 -150 57 -63 61 -69 20 -30 -75 71 -179 201 -234 294 -26 43 -47 83 -47 87
0 5 19 -22 42 -61 23 -38 65 -101 94 -140z m101 133 c-3 -8 -6 -5 -6 6 -1 11
2 17 5 13 3 -3 4 -12 1 -19z m100 -100 c-3 -8 -6 -5 -6 6 -1 11 2 17 5 13 3
-3 4 -12 1 -19z m10 -60 c-3 -8 -6 -5 -6 6 -1 11 2 17 5 13 3 -3 4 -12 1 -19z
m10 -50 c-3 -8 -6 -5 -6 6 -1 11 2 17 5 13 3 -3 4 -12 1 -19z m-1896 -105
c-13 -8 -36 -36 -52 -61 -16 -25 -29 -42 -29 -36 0 22 89 129 99 119 3 -3 -6
-13 -18 -22z m1939 -8 c0 -5 -5 -3 -10 5 -5 8 -10 20 -10 25 0 6 5 3 10 -5 5
-8 10 -19 10 -25z m163 -276 c37 -50 66 -94 63 -96 -7 -8 -156 208 -192 279
-50 100 -41 96 14 -4 26 -49 78 -129 115 -179z m-2196 109 c-3 -8 -6 -5 -6 6
-1 11 2 17 5 13 3 -3 4 -12 1 -19z m160 -250 c-3 -8 -6 -5 -6 6 -1 11 2 17 5
13 3 -3 4 -12 1 -19z m1274 -28 c102 -11 285 -48 276 -56 -2 -3 -60 3 -128 12
-153 20 -390 15 -459 -10 l-45 -16 40 5 c336 37 608 -17 868 -172 135 -80 304
-259 274 -289 -3 -3 -32 20 -64 51 -164 162 -364 244 -562 232 -170 -11 -317
-73 -479 -204 -91 -73 -102 -53 -41 74 36 75 93 134 197 204 84 56 68 57 -43
1 -140 -70 -263 -168 -317 -251 -43 -69 -35 -121 20 -121 l23 0 -22 -31 c-37
-53 -96 -89 -145 -89 -69 0 -91 37 -81 136 12 114 94 210 254 296 102 55 95
62 -15 16 -146 -60 -221 -122 -268 -222 -13 -28 -27 -68 -30 -89 -10 -60 -24
-54 -24 11 0 111 55 220 139 274 29 19 37 27 21 23 -86 -25 -172 -107 -208
-197 l-21 -53 0 80 c-1 107 26 167 101 223 181 136 439 192 739 162z m383
-340 c146 -37 270 -113 389 -238 51 -55 74 -102 47 -102 -5 0 -33 15 -62 34
-114 72 -247 98 -330 63 -49 -21 -109 -76 -184 -173 -69 -89 -100 -114 -138
-114 -38 0 -58 27 -54 72 4 45 -3 48 -31 12 -23 -30 -26 -22 -10 25 23 66 232
192 377 226 40 10 71 19 69 22 -3 2 -47 0 -99 -6 -119 -12 -214 -44 -397 -132
-143 -69 -174 -78 -186 -59 -10 16 57 75 117 104 29 14 45 25 36 26 -34 0
-126 -41 -166 -76 -50 -43 -58 -23 -12 29 37 43 109 74 220 97 l85 18 -68 1
c-86 1 -175 -28 -244 -80 -57 -43 -61 -43 -39 -1 33 63 116 115 220 137 l61
13 -55 1 -55 1 25 21 c39 31 115 68 173 84 78 21 220 19 311 -5z m670 -153 c6
-24 4 -28 -11 -25 -14 3 -18 14 -20 58 -2 53 -2 54 11 25 7 -16 16 -43 20 -58z
m-884 -109 c-105 -59 -150 -90 -175 -120 -14 -16 -25 -24 -25 -17 0 22 76 83
156 126 91 49 126 58 44 11z m425 -18 c13 -5 1 -6 -31 -3 -44 5 -55 2 -73 -16
-11 -11 -21 -17 -21 -12 0 34 74 53 125 31z m161 -71 c108 -55 173 -168 181
-319 l4 -85 -20 54 c-20 52 -47 101 -56 101 -3 0 4 -22 15 -49 65 -166 41
-313 -76 -456 -67 -82 -91 -68 -34 22 75 118 99 263 60 366 -39 103 -136 212
-251 282 -18 11 -42 35 -53 54 -19 33 -19 34 0 48 12 8 30 11 49 7 39 -8 123
-50 155 -76 14 -12 1 2 -27 31 -29 29 -53 54 -53 56 0 7 61 -14 106 -36z
m-332 -29 c8 -49 55 -105 112 -131 23 -12 65 -44 91 -72 122 -129 160 -275
102 -388 -14 -29 -23 -36 -39 -32 -11 3 -20 6 -20 7 0 0 9 25 20 54 23 60 26
153 8 216 -8 27 -32 61 -68 97 -73 73 -129 94 -262 94 -54 0 -98 2 -98 4 0 6
80 133 107 169 13 18 28 30 32 27 5 -2 11 -23 15 -45z m477 -17 c13 -17 13
-17 -6 -3 -11 8 -22 16 -24 17 -2 2 0 3 6 3 6 0 17 -8 24 -17z m126 -35 c-3
-8 -6 -5 -6 6 -1 11 2 17 5 13 3 -3 4 -12 1 -19z m130 -10 c-3 -7 -5 -2 -5 12
0 14 2 19 5 13 2 -7 2 -19 0 -25z m-152 -153 c50 -168 43 -332 -18 -485 -109
-270 -322 -405 -584 -370 -139 18 -237 64 -312 145 -65 70 -85 124 -85 225 0
175 84 344 198 402 119 61 341 10 382 -87 45 -109 -27 -255 -127 -255 -113 0
-180 111 -110 181 34 33 43 35 66 13 23 -24 29 -11 7 16 -14 17 -29 23 -59 23
-58 0 -103 -30 -133 -88 -21 -41 -26 -66 -28 -150 -4 -119 8 -174 48 -218 l29
-32 -20 41 c-23 48 -34 156 -20 199 9 29 9 29 10 -13 2 -116 96 -189 207 -161
30 8 68 30 105 61 41 33 67 48 86 47 l28 -1 -31 -9 c-17 -5 -38 -16 -45 -26
-13 -15 -12 -15 7 -3 47 29 104 -17 90 -73 -17 -68 -80 -107 -217 -132 l-74
-14 110 2 c98 3 117 6 170 32 120 58 221 195 267 362 17 64 21 108 22 248 0
94 -3 184 -7 200 -6 20 -5 27 2 20 5 -5 22 -50 36 -100z m-490 -14 c56 -25
100 -62 121 -103 24 -46 16 -44 -14 3 -53 82 -187 130 -313 110 -134 -22 -248
-102 -308 -218 -16 -32 -30 -54 -31 -50 -1 21 56 115 96 157 47 50 136 103
200 119 66 17 192 7 249 -18z m142 -173 c-3 -8 -6 -5 -6 6 -1 11 2 17 5 13 3
-3 4 -12 1 -19z m-690 -120 c-3 -8 -6 -5 -6 6 -1 11 2 17 5 13 3 -3 4 -12 1
-19z m840 -30 c-3 -8 -6 -5 -6 6 -1 11 2 17 5 13 3 -3 4 -12 1 -19z m-850 -10
c-3 -8 -6 -5 -6 6 -1 11 2 17 5 13 3 -3 4 -12 1 -19z m817 -78 c-37 -68 -45
-73 -82 -54 -42 21 -67 12 -127 -46 -27 -26 -60 -53 -72 -59 -33 -17 -95 -13
-130 9 -31 18 -59 57 -50 67 3 2 8 -4 11 -15 15 -47 111 -76 162 -49 16 9 53
39 82 66 57 55 89 64 129 36 20 -14 23 -13 46 15 14 17 32 46 39 66 7 19 14
31 16 25 2 -6 -9 -33 -24 -61z m-827 18 c-3 -8 -6 -5 -6 6 -1 11 2 17 5 13 3
-3 4 -12 1 -19z m360 -80 c-3 -8 -6 -5 -6 6 -1 11 2 17 5 13 3 -3 4 -12 1 -19z
m150 -39 c-12 -7 -27 -7 -45 0 -25 9 -24 9 18 10 36 0 41 -2 27 -10z"/>
<path d="M5056 14034 c-4 -14 -5 -28 -3 -31 3 -2 8 8 11 23 4 14 5 28 3 31 -3
2 -8 -8 -11 -23z"/>
<path d="M5836 14015 c-9 -26 -7 -32 5 -12 6 10 9 21 6 23 -2 3 -7 -2 -11 -11z"/>
<path d="M5801 13919 c-12 -35 -21 -68 -20 -73 0 -6 11 20 25 58 13 38 22 71
20 73 -2 2 -13 -24 -25 -58z"/>
<path d="M5760 13780 c-7 -28 -10 -53 -8 -55 3 -3 10 18 16 47 7 28 11 53 8
55 -2 2 -9 -19 -16 -47z"/>
<path d="M5742 13690 c0 -14 2 -19 5 -12 2 6 2 18 0 25 -3 6 -5 1 -5 -13z"/>
<path d="M5732 13635 c0 -16 2 -22 5 -12 2 9 2 23 0 30 -3 6 -5 -1 -5 -18z"/>
<path d="M9845 13120 c-18 -19 -17 -20 3 -20 15 0 22 6 22 20 0 11 -2 20 -3
20 -2 0 -12 -9 -22 -20z"/>
<path d="M6335 13104 c-27 -9 -30 -12 -10 -8 17 4 53 10 80 14 48 7 49 8 10 8
-22 0 -58 -6 -80 -14z"/>
<path d="M6528 13113 c12 -2 32 -2 45 0 12 2 2 4 -23 4 -25 0 -35 -2 -22 -4z"/>
<path d="M9838 12919 c-40 -53 -77 -133 -93 -201 -16 -69 -19 -208 -6 -276 l9
-43 -22 19 c-46 43 -159 82 -236 82 -23 0 -33 -7 -45 -31 -25 -46 -54 -172
-61 -260 -4 -43 -8 -79 -10 -79 -1 0 -36 14 -77 30 -42 17 -83 30 -92 30 -45
0 -88 59 -101 139 -4 23 -10 41 -14 41 -16 0 -102 -105 -127 -155 -70 -137
-69 -276 3 -434 13 -30 23 -56 21 -58 -3 -2 -16 1 -31 7 -60 22 -169 2 -253
-47 -102 -59 -110 -219 -16 -293 l28 -22 15 22 c64 91 103 117 145 98 32 -14
65 -67 65 -102 0 -80 -112 -176 -245 -211 -80 -21 -272 -30 -365 -17 l-75 11
-71 74 c-81 84 -129 164 -170 287 l-29 85 -6 -330 c-4 -182 -7 -508 -8 -725
l-2 -394 43 2 c58 4 273 48 326 66 40 15 42 14 42 -5 0 -46 35 -155 79 -243
l46 -94 -53 -17 c-129 -40 -389 -193 -465 -273 -25 -27 -26 -28 -32 -242 -14
-510 -56 -719 -180 -911 -110 -170 -267 -259 -528 -300 -109 -17 -286 -6 -360
21 -240 90 -274 315 -78 510 92 92 199 140 431 192 63 14 67 22 37 62 l-27 34
69 41 c90 53 131 88 131 112 0 10 -13 33 -29 51 l-29 32 -57 -49 c-69 -60
-131 -110 -167 -136 -27 -19 -27 -19 -37 0 -9 17 -2 24 62 62 116 68 188 119
182 129 -14 23 -87 31 -156 19 -38 -7 -69 -15 -69 -18 0 -3 -13 -7 -30 -8 -16
-1 -49 -11 -74 -23 -25 -11 -48 -20 -51 -20 -11 0 -136 -50 -230 -93 -247
-111 -431 -300 -486 -497 -19 -68 -17 -225 3 -290 38 -123 155 -267 287 -354
127 -84 316 -151 499 -177 56 -8 196 -10 445 -6 302 4 385 8 500 26 278 43
551 111 566 140 21 40 35 211 36 456 1 166 6 275 14 302 l12 42 36 -21 c50
-30 185 -37 268 -14 163 43 198 56 245 86 28 18 52 31 55 29 2 -2 -5 -40 -16
-84 -43 -180 -68 -533 -36 -523 6 3 14 24 17 49 5 43 5 43 17 16 8 -17 9 -27
2 -27 -6 0 -7 -5 -4 -10 10 -17 122 67 226 170 142 140 219 268 289 479 71
212 90 357 90 690 0 187 -1 194 -18 178 -18 -16 -19 -14 -30 51 -7 37 -21 110
-32 162 -23 110 -38 300 -23 300 12 0 75 -46 90 -67 10 -13 5 -24 -32 -67 -25
-28 -45 -54 -45 -57 0 -6 86 -59 94 -59 2 0 3 178 6 670 2 245 6 618 10 830 4
212 11 590 14 840 l6 455 -24 -45 c-30 -58 -56 -172 -56 -249 0 -33 -4 -62 -9
-66 -17 -10 -34 107 -28 200 5 102 30 177 83 257 40 58 41 89 2 37z m-872
-2607 l134 -17 -25 -36 c-30 -46 -97 -79 -156 -79 -42 0 -145 23 -157 34 -3 4
7 19 23 36 16 17 28 41 29 59 1 16 5 27 9 24 4 -3 69 -12 143 -21z m-531 -32
c42 -21 98 -26 138 -11 l25 10 -21 -52 c-38 -98 -34 -281 8 -389 16 -40 -15
-14 -53 45 -57 87 -98 179 -122 271 -17 68 -26 146 -17 146 1 0 20 -9 42 -20z
m903 -10 c-7 -11 -15 -20 -18 -20 -3 0 -11 9 -18 20 -11 18 -10 20 18 20 28 0
29 -2 18 -20z m-122 -447 c94 -167 144 -355 144 -544 0 -138 -14 -223 -50
-303 -15 -34 -30 -74 -34 -90 -15 -61 -81 -121 -166 -151 -45 -16 -45 -17 0
50 196 290 224 699 74 1060 -36 86 -24 78 32 -22z m-2092 -709 c-14 -45 -19
-52 -27 -39 -7 13 -3 31 14 67 29 62 37 46 13 -28z m1248 -308 c48 -20 95 -36
105 -36 11 -1 5 -8 -18 -20 -46 -24 -124 -110 -155 -172 -13 -26 -26 -48 -28
-48 -4 0 -22 144 -32 258 l-7 73 24 -10 c13 -5 63 -25 111 -45z"/>
<path d="M13431 12819 c-51 -118 -94 -241 -121 -344 -33 -126 -53 -294 -42
-344 7 -32 11 -25 50 100 62 199 90 317 117 484 13 83 22 151 20 153 -1 1 -12
-20 -24 -49z"/>
<path d="M8152 12768 c29 -29 64 -75 77 -103 30 -63 38 -164 20 -236 l-13 -54
-6 65 c-4 38 -16 87 -30 115 -25 53 -99 135 -120 135 -8 0 8 -21 34 -46 52
-50 91 -125 102 -194 l6 -45 -32 62 c-30 61 -100 133 -127 133 -20 0 -16 -6
21 -28 46 -27 84 -81 112 -157 l24 -65 -22 -45 c-18 -37 -24 -42 -30 -28 -3
10 -7 28 -7 40 -2 42 -41 129 -77 172 -20 23 -39 40 -42 37 -2 -3 10 -22 28
-43 48 -54 73 -118 78 -199 l4 -70 -80 -75 -80 -74 -4 -172 -3 -172 47 -12
c59 -14 130 1 173 36 l30 23 -30 23 c-69 52 -184 177 -193 210 -9 33 -7 36 68
109 166 161 233 325 200 483 -13 67 -67 151 -124 196 -61 49 -64 36 -4 -21z"/>
<path d="M8028 12380 c14 -87 8 -182 -16 -234 -12 -27 -20 -51 -17 -54 2 -3
16 19 30 49 20 44 25 69 24 134 0 44 -7 96 -15 115 l-14 35 8 -45z"/>
<path d="M8007 12246 c-4 -38 -6 -71 -3 -73 7 -7 18 80 14 113 -2 18 -6 3 -11
-40z"/>
<path d="M11042 11910 c-3 -116 -27 -318 -53 -437 -76 -354 -222 -588 -435
-700 -29 -15 -51 -29 -49 -31 2 -3 33 12 69 32 254 142 415 472 466 951 6 61
10 146 8 190 l-4 80 -2 -85z"/>
<path d="M4750 11310 c0 -6 7 -13 15 -16 13 -5 15 -58 15 -390 0 -335 -2 -384
-15 -384 -8 0 -15 -7 -15 -15 0 -12 16 -15 85 -15 69 0 85 3 85 15 0 8 -7 15
-15 15 -13 0 -15 28 -15 195 l0 195 30 0 c19 0 33 -7 40 -19 6 -11 10 -91 10
-188 0 -92 4 -173 8 -179 21 -32 122 -49 122 -20 0 8 -6 16 -14 19 -12 5 -15
40 -18 177 l-3 172 -33 29 -32 29 32 29 33 29 3 115 c4 130 -6 164 -61 197
-27 17 -51 20 -144 20 -71 0 -113 -4 -113 -10z m77 -597 c-1 -109 -2 -22 -2
192 0 215 1 304 2 198 2 -105 2 -281 0 -390z m133 551 c13 -34 13 -270 0 -295
-7 -12 -21 -19 -40 -19 l-30 0 0 170 0 170 30 0 c24 0 33 -6 40 -26z m47 -211
c-2 -38 -3 -7 -3 67 0 74 1 105 3 68 2 -38 2 -98 0 -135z m5 -405 c2 -64 0
-114 -4 -111 -5 2 -7 79 -6 171 2 171 6 148 10 -60z"/>
<path d="M5120 11305 c0 -8 7 -15 15 -15 13 0 15 -49 15 -385 0 -336 -2 -385
-15 -385 -8 0 -15 -7 -15 -15 0 -12 16 -15 80 -15 64 0 80 3 80 15 0 8 -7 15
-15 15 -13 0 -15 49 -15 385 0 336 2 385 15 385 8 0 15 7 15 15 0 12 -16 15
-80 15 -64 0 -80 -3 -80 -15z m80 -400 c0 -250 -4 -385 -10 -385 -6 0 -10 135
-10 385 0 250 4 385 10 385 6 0 10 -135 10 -385z"/>
<path d="M5310 11305 c0 -8 7 -15 15 -15 13 0 15 -49 15 -385 0 -336 -2 -385
-15 -385 -8 0 -15 -7 -15 -15 0 -11 12 -15 50 -15 38 0 50 4 50 15 0 8 -7 15
-15 15 -13 0 -15 37 -15 277 0 152 2 274 4 272 2 -2 32 -133 67 -291 l63 -288
43 0 43 0 0 400 c0 349 2 400 15 400 8 0 15 7 15 15 0 11 -12 15 -50 15 -38 0
-50 -4 -50 -15 0 -8 7 -15 15 -15 13 0 15 -33 14 -242 0 -134 -2 -238 -4 -233
-3 6 -27 114 -55 240 -28 127 -53 238 -56 248 -4 14 -17 17 -70 17 -50 0 -64
-3 -64 -15z m169 -404 c45 -205 80 -375 77 -378 -3 -3 -8 0 -10 8 -7 19 -166
743 -166 754 0 5 4 5 9 0 4 -6 45 -178 90 -384z"/>
<path d="M5650 11195 l0 -125 50 0 50 0 0 110 c0 91 3 110 15 110 13 0 15 -49
15 -385 0 -336 -2 -385 -15 -385 -8 0 -15 -7 -15 -15 0 -12 16 -15 85 -15 69
0 85 3 85 15 0 8 -7 15 -15 15 -13 0 -15 49 -15 385 0 336 2 385 15 385 12 0
15 -19 15 -110 l0 -110 50 0 50 0 0 125 0 125 -185 0 -185 0 0 -125z m47 -47
c-2 -29 -3 -8 -3 47 0 55 1 79 3 53 2 -26 2 -71 0 -100z m130 -435 c-1 -109
-2 -22 -2 192 0 215 1 304 2 198 2 -105 2 -281 0 -390z m143 482 c0 -57 -4
-95 -10 -95 -6 0 -10 38 -10 95 0 57 4 95 10 95 6 0 10 -38 10 -95z"/>
<path d="M6050 11305 c0 -8 5 -15 10 -15 6 0 10 -135 10 -385 0 -250 -4 -385
-10 -385 -5 0 -10 -7 -10 -15 0 -12 16 -15 80 -15 64 0 80 3 80 15 0 8 -7 15
-15 15 -13 0 -15 49 -15 385 0 336 2 385 15 385 8 0 15 7 15 15 0 12 -16 15
-80 15 -64 0 -80 -3 -80 -15z m67 -592 c-1 -109 -2 -22 -2 192 0 215 1 304 2
198 2 -105 2 -281 0 -390z"/>
<path d="M6240 11305 c0 -8 7 -15 15 -15 13 0 15 -49 15 -385 0 -336 -2 -385
-15 -385 -8 0 -15 -7 -15 -15 0 -11 12 -15 45 -15 33 0 45 4 45 15 0 8 -7 15
-15 15 -13 0 -15 34 -14 248 l1 247 18 -125 c9 -69 25 -187 35 -262 l18 -138
43 0 c39 0 44 3 45 23 0 12 11 108 23 212 l24 190 1 -197 c1 -126 -3 -198 -9
-198 -5 0 -10 -7 -10 -15 0 -12 16 -15 80 -15 64 0 80 3 80 15 0 8 -7 15 -15
15 -13 0 -15 49 -15 385 0 336 2 385 15 385 8 0 15 7 15 15 0 12 -14 15 -68
15 l-68 0 -33 -292 c-18 -161 -33 -293 -34 -295 -2 -1 -18 120 -36 270 -18
150 -35 282 -38 295 -5 20 -11 22 -69 22 -50 0 -64 -3 -64 -15z m80 -28 c0 -7
23 -177 50 -377 45 -322 55 -419 37 -370 -3 8 -26 168 -52 355 -25 187 -48
355 -51 373 -4 20 -2 32 5 32 6 0 11 -6 11 -13z m237 -564 c-1 -109 -2 -22 -2
192 0 215 1 304 2 198 2 -105 2 -281 0 -390z"/>
<path d="M6736 10948 c-43 -427 -43 -428 -62 -428 -8 0 -14 -7 -14 -15 0 -11
12 -15 50 -15 38 0 50 4 50 15 0 8 -7 15 -16 15 -13 0 -15 7 -11 33 4 17 9 69
13 115 l7 82 37 0 38 0 6 -62 c4 -35 9 -87 13 -115 4 -45 3 -53 -11 -53 -9 0
-16 -7 -16 -15 0 -12 16 -15 80 -15 64 0 80 3 80 15 0 8 -7 15 -15 15 -9 0
-15 9 -15 23 0 12 -16 185 -35 385 -19 200 -35 370 -35 378 0 10 -14 14 -53
14 l-53 0 -38 -372z m125 -46 c33 -344 37 -394 25 -381 -2 2 -18 157 -35 344
-18 187 -34 360 -38 385 -3 26 -2 41 3 37 5 -5 25 -178 45 -385z m-37 -69 l5
-53 -35 0 c-32 0 -34 2 -34 33 0 17 7 93 15 167 8 74 15 144 16 155 1 17 7
-31 33 -302z"/>
<path d="M10440 10725 c-19 -7 -28 -14 -20 -14 8 0 29 6 45 14 39 17 21 18
-25 0z"/>
<path d="M10368 10703 c6 -2 18 -2 25 0 6 3 1 5 -13 5 -14 0 -19 -2 -12 -5z"/>
<path d="M10318 10693 c6 -2 18 -2 25 0 6 3 1 5 -13 5 -14 0 -19 -2 -12 -5z"/>
<path d="M10223 10683 c15 -2 39 -2 55 0 15 2 2 4 -28 4 -30 0 -43 -2 -27 -4z"/>
<path d="M12976 9742 c-19 -37 -49 -110 -66 -160 l-33 -92 -47 44 c-26 24 -66
54 -90 66 l-43 22 7 -24 c20 -73 28 -182 20 -293 -17 -246 -6 -347 53 -477 14
-33 35 -64 47 -70 18 -10 14 -12 -32 -24 l-53 -14 -71 54 c-105 80 -167 101
-303 101 -225 -1 -391 -90 -473 -255 -23 -48 -27 -67 -27 -146 0 -82 3 -96 32
-152 l31 -62 -31 18 c-23 12 -56 17 -112 17 -66 0 -86 -4 -117 -23 -45 -28
-49 -22 -56 69 -6 81 12 137 58 188 17 18 29 35 26 38 -10 10 -114 -28 -152
-55 -43 -31 -89 -107 -99 -164 -7 -35 -9 -37 -33 -31 -24 6 -22 1 24 -57 76
-98 268 -314 384 -434 99 -102 429 -421 550 -531 30 -27 109 -99 175 -159 66
-60 140 -128 165 -150 267 -236 672 -654 865 -894 329 -409 523 -761 685
-1246 71 -210 109 -279 180 -327 37 -25 53 -29 109 -29 53 0 77 6 124 30 118
59 233 171 377 365 255 342 403 675 466 1050 24 139 24 458 0 615 -79 526
-359 1060 -859 1641 -134 155 -685 720 -702 719 -5 -1 -35 -37 -65 -80 -30
-44 -57 -76 -61 -72 -3 4 -18 35 -33 70 l-28 63 41 53 c49 63 53 88 10 51 -59
-49 -109 -68 -179 -69 -152 -2 -303 130 -324 284 l-6 45 16 -34 c30 -66 75
-121 121 -148 45 -26 52 -27 211 -30 91 -1 162 0 159 4 -4 3 -35 7 -69 8 -143
5 -270 126 -285 272 -3 29 -10 56 -16 60 -16 10 0 -99 23 -151 10 -25 38 -66
62 -92 54 -59 17 -43 -53 23 -60 56 -91 126 -97 221 -2 39 -8 72 -13 72 -15 0
-78 -103 -100 -165 -15 -42 -22 -86 -23 -145 -1 -78 2 -91 32 -152 63 -129
169 -194 300 -186 64 4 97 15 152 51 l25 16 55 -122 c30 -66 56 -124 58 -128
4 -10 -103 -145 -196 -247 l-85 -93 -38 79 c-62 127 -140 181 -221 153 -30
-11 -34 -10 -48 11 -8 13 -39 49 -69 80 -40 43 -70 64 -121 85 -64 26 -68 30
-89 83 -50 122 -36 262 44 427 43 88 164 261 219 312 14 13 23 28 20 32 -3 5
-36 9 -73 9 l-68 0 11 50 10 49 -50 53 c-27 29 -61 63 -76 76 l-27 23 -35 -69z
m55 -195 c-11 -47 -38 -127 -60 -179 -69 -162 -110 -327 -112 -453 -1 -58 -1
-59 -11 -25 -6 19 -8 87 -6 150 6 130 18 176 102 360 29 63 64 145 77 183 31
87 35 71 10 -36z m342 -206 c15 -124 110 -233 237 -272 18 -5 10 -8 -33 -8
-122 -2 -210 73 -252 214 -11 35 -10 45 8 82 11 23 24 40 27 38 4 -3 10 -27
13 -54z m-39 -235 c35 -72 119 -148 194 -176 74 -28 181 -24 237 9 l38 22 -29
-34 c-88 -104 -216 -132 -331 -73 -131 66 -200 227 -162 377 l13 54 7 -62 c3
-35 17 -85 33 -117z m-644 -513 c0 -35 -4 -39 -40 -55 -22 -9 -40 -14 -40 -12
0 26 56 101 78 104 1 0 2 -17 2 -37z m-1 -85 c0 -23 -3 -28 -7 -16 -6 15 -12
13 -45 -17 l-37 -34 0 28 c0 24 7 33 43 50 23 12 43 21 45 21 1 0 2 -15 1 -32z"/>
<path d="M10057 9491 c-3 -163 -11 -294 -22 -361 -87 -553 -316 -904 -763
-1167 -374 -220 -831 -367 -1332 -427 -63 -8 -102 -14 -87 -15 18 -1 56 -23
107 -63 l80 -61 77 11 78 11 55 -39 c30 -21 102 -73 160 -114 508 -361 1099
-572 1730 -617 650 -47 1325 104 1897 426 157 88 145 89 239 -6 69 -70 83 -52
-131 -170 -701 -388 -1467 -536 -2247 -434 -733 96 -1413 416 -1969 927 -60
55 -109 107 -109 115 0 14 -13 15 -97 10 -54 -4 -204 -8 -333 -9 -129 -1 -217
-3 -195 -5 188 -16 392 -46 404 -58 13 -12 9 -13 -24 -8 l-39 6 22 -30 c12
-17 79 -86 149 -153 569 -547 1277 -901 2046 -1025 240 -38 375 -49 632 -48
708 1 1369 184 1973 546 56 34 102 65 102 69 0 5 -15 8 -32 8 l-33 1 35 29
c19 17 41 30 50 30 22 0 508 -467 671 -646 273 -297 457 -541 599 -791 55 -96
77 -125 39 -50 -35 67 -146 245 -212 337 -264 369 -569 689 -1247 1310 -589
539 -896 857 -1133 1174 -351 468 -560 915 -621 1328 -9 58 -16 123 -16 145
l0 40 -61 7 c-34 3 -132 6 -218 6 -86 0 -170 4 -187 9 l-31 9 -6 -257z m492
54 c6 -6 22 -65 36 -132 56 -266 167 -535 351 -856 41 -70 74 -138 74 -150 0
-39 206 -333 379 -541 132 -160 393 -435 573 -606 l58 -54 36 13 c62 22 48 5
-33 -42 -295 -170 -652 -305 -974 -371 -269 -54 -343 -61 -679 -60 -277 0
-332 2 -460 22 -395 62 -700 160 -1045 335 -143 73 -444 260 -460 287 -7 12
-8 12 115 40 381 88 769 255 1053 453 198 139 416 379 430 475 3 18 15 49 27
70 40 67 108 248 139 371 39 156 60 307 70 511 12 242 20 252 193 248 59 -2
112 -8 117 -13z"/>
<path d="M9550 7471 c0 -6 5 -11 10 -11 14 0 14 -397 0 -405 -18 -11 0 -25 33
-25 50 0 106 19 117 40 6 10 10 93 10 188 0 208 -1 211 -103 219 -47 4 -67 2
-67 -6z m94 -17 c14 -5 16 -32 16 -200 0 -187 -1 -194 -20 -194 -19 0 -20 7
-20 200 0 110 2 200 4 200 2 0 11 -3 20 -6z m43 -286 c-1 -51 -3 -12 -3 87 0
99 2 141 3 93 2 -48 2 -129 0 -180z"/>
<path d="M9747 7258 l2 -223 75 -3 76 -3 0 71 0 70 -30 0 c-30 0 -30 -1 -30
-55 0 -42 -3 -55 -15 -55 -12 0 -15 18 -15 100 l0 100 30 0 c17 0 30 5 30 10
0 6 -13 10 -30 10 l-30 0 0 90 c0 73 3 90 15 90 12 0 15 -13 15 -60 l0 -60 30
0 30 0 0 70 0 70 -77 0 -78 0 2 -222z"/>
<path d="M9949 7461 c-20 -16 -24 -28 -24 -78 0 -52 5 -67 48 -138 43 -73 47
-85 45 -135 -2 -41 -7 -55 -18 -55 -11 0 -16 14 -18 58 -3 56 -3 57 -34 57
l-31 0 5 -51 c6 -63 26 -84 78 -84 59 0 75 22 75 99 0 57 -4 68 -45 131 -41
62 -45 75 -45 130 0 47 3 60 15 60 11 0 16 -14 18 -57 3 -57 3 -58 34 -58 l31
0 -5 52 c-4 38 -12 57 -28 70 -29 23 -72 23 -101 -1z"/>
<path d="M10090 7471 c0 -6 5 -11 10 -11 14 0 14 -397 0 -405 -6 -4 -7 -11 -4
-17 10 -16 124 -1 146 19 16 14 18 35 18 198 0 171 -1 183 -21 201 -24 21
-149 34 -149 15z m110 -217 c0 -166 -2 -194 -15 -194 -13 0 -15 29 -15 200 0
173 2 199 15 194 13 -5 15 -37 15 -200z m27 -86 c-1 -51 -3 -12 -3 87 0 99 2
141 3 93 2 -48 2 -129 0 -180z"/>
<path d="M10280 7470 c0 -5 5 -10 10 -10 14 0 14 -397 0 -405 -24 -15 6 -25
76 -25 l74 0 0 70 c0 68 -1 70 -25 70 -24 0 -25 -3 -25 -55 0 -48 -2 -55 -20
-55 -19 0 -20 7 -20 100 l0 100 30 0 c17 0 30 5 30 10 0 6 -13 10 -30 10 l-30
0 0 90 c0 83 1 90 20 90 18 0 20 -7 20 -60 0 -57 1 -60 25 -60 24 0 25 2 25
70 l0 70 -80 0 c-47 0 -80 -4 -80 -10z"/>
<path d="M10550 7470 c0 -5 5 -10 10 -10 14 0 14 -397 0 -405 -19 -12 1 -25
38 -25 l37 0 -3 212 c-1 117 -5 219 -7 226 -5 14 -75 17 -75 2z"/>
<path d="M10686 7459 c-25 -19 -26 -25 -26 -108 0 -102 15 -127 70 -119 l31 5
-3 -91 c-2 -73 -6 -91 -18 -91 -11 0 -16 14 -18 58 -3 56 -4 57 -32 57 -29 0
-30 -1 -30 -49 0 -42 4 -53 27 -71 21 -17 36 -20 63 -16 65 10 70 26 70 223 0
171 0 174 -25 198 -30 31 -73 32 -109 4z m69 -105 c0 -81 -3 -99 -15 -99 -12
0 -16 18 -18 89 -3 97 1 120 21 113 8 -2 12 -32 12 -103z"/>
<path d="M10878 7465 c-32 -18 -44 -76 -34 -158 6 -57 24 -77 68 -77 l28 0 0
-84 c0 -52 -4 -88 -11 -92 -17 -10 -29 16 -29 69 0 46 -1 47 -30 47 -26 0 -30
-3 -30 -29 0 -92 70 -140 134 -90 l26 20 0 184 0 184 -26 20 c-31 24 -58 26
-96 6z m60 -114 c2 -94 1 -102 -15 -99 -15 3 -18 16 -21 83 -3 90 3 128 21
122 8 -2 13 -37 15 -106z"/>
<path d="M11056 7459 c-23 -18 -26 -27 -26 -88 0 -43 5 -74 15 -88 13 -18 13
-22 0 -33 -11 -9 -15 -34 -15 -95 0 -79 1 -85 27 -105 34 -27 89 -22 116 11
23 28 24 154 1 187 -14 20 -14 24 0 44 10 14 16 44 16 81 0 48 -4 62 -25 82
-30 31 -73 32 -109 4z m69 -90 c0 -72 -2 -84 -17 -87 -16 -3 -18 6 -18 81 0
46 3 87 7 91 19 19 28 -7 28 -85z m0 -215 c0 -81 -3 -99 -15 -99 -12 0 -16 18
-18 89 -3 97 1 120 21 113 8 -2 12 -32 12 -103z"/>
<path d="M7165 9455 l-50 -14 45 7 c25 4 86 7 135 7 106 -1 167 -23 255 -94
53 -42 54 -43 20 -7 -19 21 -68 54 -108 74 -65 32 -84 36 -160 39 -53 1 -107
-3 -137 -12z"/>
<path d="M13537 9295 c20 -62 97 -138 166 -164 40 -15 25 5 -22 28 -35 19 -78
61 -128 127 -15 20 -20 23 -16 9z"/>
<path d="M7278 8383 c6 -2 18 -2 25 0 6 3 1 5 -13 5 -14 0 -19 -2 -12 -5z"/>
<path d="M7193 8373 c15 -2 37 -2 50 0 12 2 0 4 -28 4 -27 0 -38 -2 -22 -4z"/>
<path d="M6042 8305 c0 -16 2 -22 5 -12 2 9 2 23 0 30 -3 6 -5 -1 -5 -18z"/>
<path d="M6051 8254 c0 -11 3 -14 6 -6 3 7 2 16 -1 19 -3 4 -6 -2 -5 -13z"/>
<path d="M6080 8165 c0 -5 5 -17 10 -25 5 -8 10 -10 10 -5 0 6 -5 17 -10 25
-5 8 -10 11 -10 5z"/>
<path d="M6110 8091 c0 -6 4 -13 10 -16 6 -3 7 1 4 9 -7 18 -14 21 -14 7z"/>
<path d="M6140 8040 c6 -11 13 -20 16 -20 2 0 0 9 -6 20 -6 11 -13 20 -16 20
-2 0 0 -9 6 -20z"/>
<path d="M6197 7954 c29 -40 161 -165 203 -193 l35 -22 -35 27 c-19 15 -77 70
-129 122 -52 53 -85 82 -74 66z"/>
<path d="M6470 7716 c0 -3 9 -10 20 -16 11 -6 20 -8 20 -6 0 3 -9 10 -20 16
-11 6 -20 8 -20 6z"/>
<path d="M15322 7670 c8 -14 27 -46 42 -72 15 -27 30 -48 33 -48 6 0 -49 96
-71 123 l-18 22 14 -25z"/>
<path d="M6540 7675 c0 -7 61 -37 66 -33 2 3 -12 12 -31 21 -19 9 -35 15 -35
12z"/>
<path d="M6640 7626 c14 -7 36 -16 50 -20 14 -3 7 3 -15 13 -45 22 -73 27 -35
7z"/>
<path d="M6818 7563 c7 -3 16 -2 19 1 4 3 -2 6 -13 5 -11 0 -14 -3 -6 -6z"/>
<path d="M6858 7553 c7 -3 16 -2 19 1 4 3 -2 6 -13 5 -11 0 -14 -3 -6 -6z"/>
<path d="M6898 7543 c6 -2 18 -2 25 0 6 3 1 5 -13 5 -14 0 -19 -2 -12 -5z"/>
<path d="M6948 7533 c6 -2 18 -2 25 0 6 3 1 5 -13 5 -14 0 -19 -2 -12 -5z"/>
<path d="M7003 7523 c9 -2 23 -2 30 0 6 3 -1 5 -18 5 -16 0 -22 -2 -12 -5z"/>
<path d="M7083 7513 c9 -2 25 -2 35 0 9 3 1 5 -18 5 -19 0 -27 -2 -17 -5z"/>
<path d="M15472 7395 c34 -68 64 -123 66 -121 4 5 -116 246 -123 246 -3 0 23
-56 57 -125z"/>
<path d="M15541 7255 c0 -5 6 -21 14 -35 8 -14 14 -20 14 -15 0 6 -6 21 -14
35 -8 14 -14 21 -14 15z"/>
<path d="M15570 7185 c0 -5 5 -17 10 -25 5 -8 10 -10 10 -5 0 6 -5 17 -10 25
-5 8 -10 11 -10 5z"/>
<path d="M15596 7120 c3 -14 11 -32 16 -40 6 -10 7 -7 2 10 -3 14 -11 32 -16
40 -6 10 -7 7 -2 -10z"/>
<path d="M15661 6930 c0 -8 4 -24 9 -35 5 -13 9 -14 9 -5 0 8 -4 24 -9 35 -5
13 -9 14 -9 5z"/>
<path d="M15681 6854 c0 -11 3 -14 6 -6 3 7 2 16 -1 19 -3 4 -6 -2 -5 -13z"/>
<path d="M15691 6814 c0 -11 3 -14 6 -6 3 7 2 16 -1 19 -3 4 -6 -2 -5 -13z"/>
<path d="M15701 6774 c0 -11 3 -14 6 -6 3 7 2 16 -1 19 -3 4 -6 -2 -5 -13z"/>
<path d="M15712 6730 c0 -14 2 -19 5 -12 2 6 2 18 0 25 -3 6 -5 1 -5 -13z"/>
<path d="M15722 6680 c0 -14 2 -19 5 -12 2 6 2 18 0 25 -3 6 -5 1 -5 -13z"/>
<path d="M15732 6625 c0 -16 2 -22 5 -12 2 9 2 23 0 30 -3 6 -5 -1 -5 -18z"/>
<path d="M15742 6560 c0 -19 2 -27 5 -17 2 9 2 25 0 35 -3 9 -5 1 -5 -18z"/>
<path d="M15753 6480 c0 -25 2 -35 4 -22 2 12 2 32 0 45 -2 12 -4 2 -4 -23z"/>
<path d="M15764 6250 c0 -96 2 -136 3 -87 2 48 2 126 0 175 -1 48 -3 8 -3 -88z"/>
<path d="M15753 6005 c0 -22 2 -30 4 -17 2 12 2 30 0 40 -3 9 -5 -1 -4 -23z"/>
<path d="M15742 5925 c0 -16 2 -22 5 -12 2 9 2 23 0 30 -3 6 -5 -1 -5 -18z"/>
<path d="M15732 5865 c0 -16 2 -22 5 -12 2 9 2 23 0 30 -3 6 -5 -1 -5 -18z"/>
<path d="M15722 5810 c0 -14 2 -19 5 -12 2 6 2 18 0 25 -3 6 -5 1 -5 -13z"/>
<path d="M15711 5764 c0 -11 3 -14 6 -6 3 7 2 16 -1 19 -3 4 -6 -2 -5 -13z"/>
<path d="M15702 5720 c0 -14 2 -19 5 -12 2 6 2 18 0 25 -3 6 -5 1 -5 -13z"/>
<path d="M15681 5644 c0 -11 3 -14 6 -6 3 7 2 16 -1 19 -3 4 -6 -2 -5 -13z"/>
<path d="M15661 5579 c-7 -22 -11 -43 -8 -45 2 -2 9 14 16 37 7 22 11 43 8 45
-2 2 -9 -14 -16 -37z"/>
<path d="M15626 5474 c-9 -26 -14 -49 -12 -51 2 -2 11 17 20 43 9 26 14 49 12
51 -2 2 -11 -17 -20 -43z"/>
<path d="M15577 5348 c-15 -34 -25 -63 -23 -65 2 -2 15 24 30 58 15 34 25 63
23 65 -2 2 -16 -24 -30 -58z"/>
<path d="M13842 5265 c18 -35 34 -63 36 -61 4 5 -56 126 -63 126 -3 0 10 -29
27 -65z"/>
<path d="M15516 5213 c-6 -14 -5 -15 5 -6 7 7 10 15 7 18 -3 3 -9 -2 -12 -12z"/>
<path d="M13891 5165 c0 -5 8 -26 19 -45 11 -19 19 -30 19 -25 0 6 -8 26 -19
45 -11 19 -19 31 -19 25z"/>
<path d="M15455 5100 c-9 -16 -13 -30 -11 -30 3 0 12 14 21 30 9 17 13 30 11
30 -3 0 -12 -13 -21 -30z"/>
<path d="M13935 5063 c4 -10 16 -42 27 -71 12 -29 23 -51 25 -48 5 5 -47 136
-54 136 -3 0 -2 -8 2 -17z"/>
<path d="M15419 5038 c-7 -13 -19 -34 -27 -48 -14 -24 -13 -24 3 -5 20 24 48
75 41 75 -3 0 -11 -10 -17 -22z"/>
<path d="M15318 4878 c-30 -46 -90 -128 -133 -183 -43 -55 -71 -94 -62 -87 39
32 270 352 254 352 -2 0 -29 -37 -59 -82z"/>
<path d="M13995 4912 c19 -64 54 -156 54 -146 1 14 -47 155 -55 163 -4 3 -3
-5 1 -17z"/>
<path d="M14061 4710 c0 -8 6 -28 14 -45 17 -39 18 -21 0 25 -7 19 -14 28 -14
20z"/>
<path d="M14090 4625 c0 -5 5 -17 10 -25 5 -8 10 -10 10 -5 0 6 -5 17 -10 25
-5 8 -10 11 -10 5z"/>
<path d="M14110 4575 c0 -11 49 -95 56 -95 3 0 -7 21 -22 48 -33 56 -34 58
-34 47z"/>
<path d="M15020 4505 c-41 -41 -72 -75 -69 -75 2 0 38 34 79 75 41 41 72 75
69 75 -2 0 -38 -34 -79 -75z"/>
<path d="M14189 4443 c49 -73 189 -173 241 -173 8 0 -10 11 -41 23 -67 28
-116 64 -176 131 -25 28 -36 37 -24 19z"/>
<path d="M14895 4397 c-22 -18 -52 -40 -65 -50 -24 -17 -24 -17 8 0 31 17 113
83 102 82 -3 0 -23 -15 -45 -32z"/>
<path d="M14730 4300 c-8 -5 -10 -10 -5 -10 6 0 17 5 25 10 8 5 11 10 5 10 -5
0 -17 -5 -25 -10z"/>
<path d="M14458 4263 c6 -2 18 -2 25 0 6 3 1 5 -13 5 -14 0 -19 -2 -12 -5z"/>
<path d="M14618 4263 c6 -2 18 -2 25 0 6 3 1 5 -13 5 -14 0 -19 -2 -12 -5z"/>
<path d="M14558 4253 c7 -3 16 -2 19 1 4 3 -2 6 -13 5 -11 0 -14 -3 -6 -6z"/>
</g>
</svg>
